<?xml version="1.0" encoding="utf-8"?>
<!-- Generator: Adobe Illustrator 26.0.0, SVG Export Plug-In . SVG Version: 6.00 Build 0)  -->
<svg version="1.1" id="Layer_1" xmlns="http://www.w3.org/2000/svg" xmlns:xlink="http://www.w3.org/1999/xlink" x="0px" y="0px"
	 viewBox="0 0 1920 111.4" style="enable-background:new 0 0 1920 111.4;" xml:space="preserve">
<style type="text/css">
	.st0{opacity:0.7;}
	.st1{fill:#10052D;}
	.st2{opacity:0.5;clip-path:url(#SVGID_00000039127006147941545810000003548541888806451614_);}
	.st3{clip-path:url(#SVGID_00000108285644403907567200000006138127603926869922_);}
	.st4{fill:#2B1B66;}
</style>
<g class="st0">
	<rect class="st1" width="1920" height="111.4"/>
	<g>
		<g>
			<defs>
				<rect id="SVGID_1_" width="1920" height="111.4"/>
			</defs>
			<clipPath id="SVGID_00000157302785116624878840000006366017501887236489_">
				<use xlink:href="#SVGID_1_"  style="overflow:visible;"/>
			</clipPath>
			<g style="opacity:0.5;clip-path:url(#SVGID_00000157302785116624878840000006366017501887236489_);">
				<g>
					<defs>
						<rect id="SVGID_00000179637129943165995010000010619958719652085927_" y="-159.9" width="1920" height="271.3"/>
					</defs>
					<clipPath id="SVGID_00000089567549530307083530000015086483116680209553_">
						<use xlink:href="#SVGID_00000179637129943165995010000010619958719652085927_"  style="overflow:visible;"/>
					</clipPath>
					<g style="clip-path:url(#SVGID_00000089567549530307083530000015086483116680209553_);">
						<g>
							<g>
								<path class="st4" d="M1001-35.3h4.3v53.6c0,22.6,18.4,41,41,41c22.6,0,40.9-18.4,40.9-41v-53.6h4.3v53.6
									c0,25-20.3,45.3-45.3,45.3S1001,43.3,1001,18.3L1001-35.3L1001-35.3z"/>
							</g>
							<g>
								<circle class="st4" cx="1046.3" cy="-2.9" r="8"/>
								<path class="st4" d="M1046.3-13.1c5.6,0,10.2,4.6,10.2,10.2s-4.6,10.2-10.2,10.2s-10.2-4.6-10.2-10.2
									S1040.7-13.1,1046.3-13.1z M1046.3,3c3.2,0,5.9-2.6,5.9-5.9s-2.6-5.9-5.9-5.9s-5.9,2.6-5.9,5.9
									C1040.4,0.4,1043.1,3,1046.3,3z"/>
							</g>
							<g>
								<path class="st4" d="M1038.6-32.4c-18.9,3.6-33.3,20.2-33.3,40.1h-4.3c0-22.2,16.3-40.8,37.6-44.5"/>
							</g>
						</g>
						<g>
							<g>
								<path class="st4" d="M1265.1-35.2h-4.3v53.6c0,22.6-18.4,41-40.9,41s-40.9-18.4-40.9-41v-53.6h-4.3v53.6
									c0,25,20.3,45.3,45.3,45.3s45.3-20.3,45.3-45.3L1265.1-35.2L1265.1-35.2z"/>
							</g>
							<g>
								<circle class="st4" cx="1219.8" cy="-2.8" r="8"/>
								<path class="st4" d="M1230-2.8c0,5.6-4.6,10.2-10.2,10.2s-10.2-4.6-10.2-10.2s4.6-10.2,10.2-10.2S1230-8.4,1230-2.8z
									 M1225.7-2.8c0-3.2-2.6-5.9-5.9-5.9s-5.9,2.6-5.9,5.9s2.6,5.9,5.9,5.9S1225.7,0.5,1225.7-2.8z"/>
							</g>
							<g>
								<path class="st4" d="M1227.5-32.2c18.9,3.6,33.3,20.2,33.3,40.1h4.3c0-22.2-16.3-40.8-37.6-44.5"/>
							</g>
						</g>
						<g>
							<g>
								<path class="st4" d="M1178.6,94.4h-4.3V40.8c0-22.6-18.4-41-40.9-41s-40.9,18.4-40.9,41v53.6h-4.3V40.8
									c0-25,20.3-45.3,45.3-45.3s45.3,20.3,45.3,45.3L1178.6,94.4L1178.6,94.4z"/>
							</g>
							<g>
								<path class="st4" d="M1135.4,129.2h-4v0c-20.3-0.8-37.9-14.5-43.2-33.9l-0.1-0.3v-0.6h3.2l1.1-0.3
									c4.8,17.4,20.5,29.8,38.7,30.7v-22.1l4.3,0l0.3,22.2c18.5-0.9,34.2-13.3,38.7-30.9l4.2,1.1c-2.5,9.6-8.2,18.3-16.3,24.5
									C1154.5,125.4,1145.2,128.8,1135.4,129.2L1135.4,129.2L1135.4,129.2z"/>
							</g>
							<g>
								<path class="st4" d="M1092.2,94.6l-4.2-1.2c5.4-19.7,24-33.5,45.1-33.5v4.3C1114,64.4,1097.2,76.8,1092.2,94.6z"/>
							</g>
							<g>
								<circle class="st4" cx="1133.3" cy="62" r="8"/>
								<path class="st4" d="M1133.3,72.2c-5.6,0-10.2-4.6-10.2-10.2s4.6-10.2,10.2-10.2s10.2,4.6,10.2,10.2
									S1138.9,72.2,1133.3,72.2z M1133.3,56.2c-3.2,0-5.9,2.6-5.9,5.9c0,3.2,2.6,5.9,5.9,5.9s5.9-2.6,5.9-5.9
									S1136.5,56.2,1133.3,56.2z"/>
							</g>
							<g>
								<path class="st4" d="M1140.9,91.5c18.9-3.6,33.3-20.2,33.3-40.1h4.3c0,22.2-16.3,40.8-37.6,44.5"/>
							</g>
							<g>
								<path class="st4" d="M1133.1,104.5c-5.6,0-10.2-4.6-10.2-10.2s4.6-10.2,10.2-10.2s10.2,4.6,10.2,10.2
									S1138.8,104.5,1133.1,104.5z M1133.1,88.4c-3.2,0-5.9,2.6-5.9,5.9c0,3.2,2.6,5.9,5.9,5.9s5.9-2.6,5.9-5.9
									C1139,91,1136.4,88.4,1133.1,88.4z"/>
							</g>
						</g>
						<g>
							<g>
								<path class="st4" d="M1092,93.7h-4.3v53.6c0,22.6-18.4,40.9-40.9,40.9s-41-18.4-41-40.9V93.7h-4.3v53.6
									c0,25,20.3,45.3,45.3,45.3c25,0,45.3-20.3,45.3-45.3L1092,93.7L1092,93.7z"/>
							</g>
							<g>
								<path class="st4" d="M1048.8,58.9h-4v0c-20.3,0.8-37.9,14.5-43.2,33.9l-0.1,0.3v0.6h3.2l1.1,0.3
									c4.8-17.4,20.5-29.8,38.7-30.7v22.1l4.3,0l0.3-22.2c18.5,0.9,34.2,13.4,38.7,30.9l4.2-1.1c-2.5-9.6-8.2-18.3-16.3-24.5
									C1068,62.7,1058.7,59.3,1048.8,58.9L1048.8,58.9L1048.8,58.9z"/>
							</g>
							<g>
								<path class="st4" d="M1005.7,93.5l-4.2,1.2c5.4,19.7,24,33.4,45.1,33.4v-4.3C1027.4,123.8,1010.6,111.3,1005.7,93.5z"/>
							</g>
							<g>
								<path class="st4" d="M1054.4,96.6c18.9,3.6,33.3,20.2,33.3,40.1h4.3c0-22.2-16.3-40.8-37.6-44.5"/>
							</g>
							<g>
								<path class="st4" d="M1056.8,93.9c0,5.6-4.6,10.2-10.2,10.2s-10.2-4.6-10.2-10.2s4.6-10.2,10.2-10.2
									C1052.2,83.7,1056.8,88.2,1056.8,93.9z M1052.4,93.9c0-3.2-2.6-5.9-5.9-5.9s-5.9,2.6-5.9,5.9s2.6,5.9,5.9,5.9
									C1049.8,99.8,1052.4,97.1,1052.4,93.9z"/>
							</g>
						</g>
						<g>
							<g>
								<path class="st4" d="M1264.9,93.6h-4.3v53.6c0,22.6-18.4,40.9-40.9,40.9s-40.9-18.4-40.9-40.9V93.6h-4.3v53.6
									c0,25,20.3,45.3,45.3,45.3s45.3-20.3,45.3-45.3L1264.9,93.6L1264.9,93.6z"/>
							</g>
							<g>
								<path class="st4" d="M1221.8,58.9h-4v0c-20.3,0.8-37.9,14.5-43.2,33.9l-0.1,0.3v0.6h3.2l1.1,0.3
									c4.8-17.4,20.5-29.8,38.7-30.7v22.1l4.3,0l0.3-22.2c18.5,0.9,34.2,13.4,38.7,30.9l4.2-1.1c-2.5-9.6-8.2-18.3-16.3-24.5
									C1240.9,62.6,1231.6,59.3,1221.8,58.9L1221.8,58.9L1221.8,58.9z"/>
							</g>
							<g>
								<path class="st4" d="M1178.6,93.4l-4.2,1.2c5.4,19.7,24,33.4,45.1,33.4v-4.3C1200.4,123.7,1183.6,111.2,1178.6,93.4z"/>
							</g>
							<g>
								<path class="st4" d="M1227.3,96.6c18.9,3.6,33.3,20.2,33.3,40.1h4.3c0-22.2-16.3-40.8-37.6-44.5"/>
							</g>
							<g>
								<path class="st4" d="M1229.7,93.8c0,5.6-4.6,10.2-10.2,10.2s-10.2-4.6-10.2-10.2s4.6-10.2,10.2-10.2
									S1229.7,88.2,1229.7,93.8z M1225.4,93.8c0-3.2-2.6-5.9-5.9-5.9s-5.9,2.6-5.9,5.9s2.6,5.9,5.9,5.9S1225.4,97.1,1225.4,93.8z"
									/>
							</g>
						</g>
						<g>
							<g>
								<path class="st4" d="M1307.8,1.1h-4v0c-20.3-0.8-37.9-14.5-43.2-33.9l-0.1-0.3v-0.6h3.2l1.1-0.3
									c4.8,17.4,20.5,29.8,38.7,30.7v-22.1l4.3,0l0.3,22.2c18.5-0.9,34.2-13.4,38.7-30.9l4.2,1.1c-2.5,9.6-8.2,18.3-16.3,24.5
									C1326.9-2.6,1317.6,0.7,1307.8,1.1L1307.8,1.1L1307.8,1.1z"/>
							</g>
						</g>
						<g>
							<g>
								<path class="st4" d="M1260,95.7h4.3V42.1c0-22.6,18.4-41,40.9-41s40.9,18.4,40.9,41v53.6h4.3V42.1c0-25-20.3-45.3-45.3-45.3
									S1260,17.2,1260,42.1L1260,95.7L1260,95.7z"/>
							</g>
							<g>
								<path class="st4" d="M1303.2,130.5h4v0c20.3-0.8,37.9-14.5,43.2-33.9l0.1-0.3v-0.6h-3.2l-1.1-0.3
									c-4.8,17.4-20.5,29.8-38.7,30.7V104l-4.3,0l-0.3,22.2c-18.5-0.9-34.2-13.3-38.7-30.9l-4.2,1.1c2.5,9.6,8.2,18.3,16.3,24.5
									C1284,126.7,1293.3,130.1,1303.2,130.5L1303.2,130.5L1303.2,130.5z"/>
							</g>
							<g>
								<path class="st4" d="M1346.3,95.9l4.2-1.2c-5.4-19.7-24-33.5-45.1-33.5v4.3C1324.5,65.7,1341.3,78.1,1346.3,95.9z"/>
							</g>
							<g>
								<circle class="st4" cx="1305.2" cy="63.3" r="8"/>
								<path class="st4" d="M1295,63.3c0-5.6,4.6-10.2,10.2-10.2s10.2,4.6,10.2,10.2s-4.6,10.2-10.2,10.2S1295,69,1295,63.3z
									 M1299.4,63.3c0,3.2,2.6,5.9,5.9,5.9s5.9-2.6,5.9-5.9s-2.6-5.9-5.9-5.9S1299.4,60.1,1299.4,63.3z"/>
							</g>
							<g>
								<path class="st4" d="M1297.6,92.8c-18.9-3.6-33.3-20.2-33.3-40.1h-4.3c0,22.2,16.3,40.8,37.6,44.5"/>
							</g>
							<g>
								<path class="st4" d="M1295.2,95.6c0-5.6,4.6-10.2,10.2-10.2s10.2,4.6,10.2,10.2s-4.6,10.2-10.2,10.2
									S1295.2,101.2,1295.2,95.6z M1299.5,95.6c0,3.2,2.6,5.9,5.9,5.9s5.9-2.6,5.9-5.9s-2.6-5.9-5.9-5.9
									C1302.2,89.7,1299.5,92.3,1299.5,95.6z"/>
							</g>
						</g>
						<g>
							<g>
								<path class="st4" d="M1345.8-35h4.3v53.6c0,22.6,18.4,41,40.9,41s40.9-18.4,40.9-41V-35h4.3v53.6c0,25-20.3,45.3-45.3,45.3
									s-45.3-20.3-45.3-45.3L1345.8-35L1345.8-35z"/>
							</g>
							<g>
								<circle class="st4" cx="1391" cy="-2.6" r="8"/>
								<path class="st4" d="M1391-12.8c5.6,0,10.2,4.6,10.2,10.2s-4.6,10.2-10.2,10.2s-10.2-4.6-10.2-10.2S1385.4-12.8,1391-12.8z
									 M1391,3.3c3.2,0,5.9-2.6,5.9-5.9s-2.6-5.9-5.9-5.9s-5.9,2.6-5.9,5.9C1385.2,0.6,1387.8,3.3,1391,3.3z"/>
							</g>
							<g>
								<path class="st4" d="M1383.4-32.1c-18.9,3.6-33.3,20.2-33.3,40.1h-4.3c0-22.2,16.3-40.8,37.6-44.5"/>
							</g>
						</g>
						<g>
							<g>
								<path class="st4" d="M1475.5,0.1h4v0c20.3-0.8,37.9-14.5,43.2-33.9l0.1-0.3v-0.6h-3.2l-1.1-0.3
									c-4.8,17.4-20.5,29.8-38.7,30.7v-22.1l-4.3,0l-0.3,22.2c-18.5-0.9-34.2-13.4-38.7-30.9l-4.2,1.1c2.5,9.6,8.2,18.3,16.3,24.5
									C1456.4-3.7,1465.6-0.3,1475.5,0.1L1475.5,0.1L1475.5,0.1z"/>
							</g>
						</g>
						<g>
							<g>
								<path class="st4" d="M1609.8-34.9h-4.3v53.6c0,22.6-18.4,41-40.9,41s-40.9-18.4-40.9-41v-53.6h-4.3v53.6
									c0,25,20.3,45.3,45.3,45.3s45.3-20.3,45.3-45.3L1609.8-34.9L1609.8-34.9z"/>
							</g>
							<g>
								<circle class="st4" cx="1564.5" cy="-2.5" r="8"/>
								<path class="st4" d="M1574.7-2.5c0,5.6-4.6,10.2-10.2,10.2s-10.2-4.6-10.2-10.2s4.6-10.2,10.2-10.2S1574.7-8.1,1574.7-2.5z
									 M1570.4-2.5c0-3.2-2.6-5.9-5.9-5.9s-5.9,2.6-5.9,5.9s2.6,5.9,5.9,5.9S1570.4,0.8,1570.4-2.5z"/>
							</g>
							<g>
								<path class="st4" d="M1572.2-32c18.9,3.6,33.3,20.2,33.3,40.1h4.3c0-22.2-16.3-40.8-37.6-44.5"/>
							</g>
						</g>
						<g>
							<g>
								<path class="st4" d="M1523.3,94.7h-4.3V41.1c0-22.6-18.4-41-40.9-41s-40.9,18.4-40.9,41v53.6h-4.3V41.1
									c0-25,20.3-45.3,45.3-45.3s45.3,20.3,45.3,45.3L1523.3,94.7L1523.3,94.7z"/>
							</g>
							<g>
								<path class="st4" d="M1480.1,129.4h-4v0c-20.3-0.8-37.9-14.5-43.2-33.9l-0.1-0.3v-0.6h3.2l1.1-0.3
									c4.8,17.4,20.5,29.8,38.7,30.7v-22.1l4.3,0l0.3,22.2c18.5-0.9,34.2-13.3,38.7-30.9l4.2,1.1c-2.5,9.6-8.2,18.3-16.3,24.5
									C1499.2,125.7,1490,129,1480.1,129.4L1480.1,129.4L1480.1,129.4z"/>
							</g>
							<g>
								<path class="st4" d="M1437,94.9l-4.2-1.2c5.4-19.7,24-33.5,45.1-33.5v4.3C1458.7,64.6,1441.9,77.1,1437,94.9z"/>
							</g>
							<g>
								<circle class="st4" cx="1478" cy="62.3" r="8"/>
								<path class="st4" d="M1478,72.5c-5.6,0-10.2-4.6-10.2-10.2s4.6-10.2,10.2-10.2s10.2,4.6,10.2,10.2S1483.6,72.5,1478,72.5z
									 M1478,56.4c-3.2,0-5.9,2.6-5.9,5.9c0,3.2,2.6,5.9,5.9,5.9s5.9-2.6,5.9-5.9C1483.9,59.1,1481.2,56.4,1478,56.4z"/>
							</g>
							<g>
								<path class="st4" d="M1485.7,91.8c18.9-3.6,33.3-20.2,33.3-40.1h4.3c0,22.2-16.3,40.8-37.6,44.5"/>
							</g>
							<g>
								<path class="st4" d="M1477.8,104.7c-5.6,0-10.2-4.6-10.2-10.2s4.6-10.2,10.2-10.2s10.2,4.6,10.2,10.2
									C1488.1,100.2,1483.5,104.7,1477.8,104.7z M1477.8,88.7c-3.2,0-5.9,2.6-5.9,5.9c0,3.2,2.6,5.9,5.9,5.9s5.9-2.6,5.9-5.9
									S1481.1,88.7,1477.8,88.7z"/>
							</g>
						</g>
						<g>
							<g>
								<path class="st4" d="M1436.7,94h-4.3v53.6c0,22.6-18.4,40.9-40.9,40.9s-40.9-18.4-40.9-40.9V94h-4.3v53.6
									c0,25,20.3,45.3,45.3,45.3s45.3-20.3,45.3-45.3L1436.7,94L1436.7,94z"/>
							</g>
							<g>
								<path class="st4" d="M1393.5,59.2h-4v0c-20.3,0.8-37.9,14.5-43.2,33.9l-0.1,0.3V94h3.2l1.1,0.3
									c4.8-17.4,20.5-29.8,38.7-30.7v22.1l4.3,0l0.3-22.2c18.5,0.9,34.2,13.4,38.7,30.9l4.2-1.1c-2.5-9.6-8.2-18.3-16.3-24.5
									C1412.7,63,1403.4,59.6,1393.5,59.2L1393.5,59.2L1393.5,59.2z"/>
							</g>
							<g>
								<path class="st4" d="M1350.4,93.8l-4.2,1.2c5.4,19.7,24,33.4,45.1,33.4V124C1372.2,124,1355.3,111.6,1350.4,93.8z"/>
							</g>
							<g>
								<path class="st4" d="M1399.1,96.9c18.9,3.6,33.3,20.2,33.3,40.1h4.3c0-22.2-16.3-40.8-37.6-44.5"/>
							</g>
							<g>
								<path class="st4" d="M1401.5,94.1c0,5.6-4.6,10.2-10.2,10.2s-10.2-4.6-10.2-10.2s4.6-10.2,10.2-10.2
									S1401.5,88.5,1401.5,94.1z M1397.2,94.1c0-3.2-2.6-5.9-5.9-5.9s-5.9,2.6-5.9,5.9s2.6,5.9,5.9,5.9
									C1394.5,100,1397.2,97.4,1397.2,94.1z"/>
							</g>
						</g>
						<g>
							<g>
								<path class="st4" d="M1609.7,93.9h-4.3v53.6c0,22.6-18.4,40.9-40.9,40.9s-40.9-18.4-40.9-40.9V93.9h-4.3v53.6
									c0,25,20.3,45.3,45.3,45.3s45.3-20.3,45.3-45.3L1609.7,93.9L1609.7,93.9z"/>
							</g>
							<g>
								<path class="st4" d="M1566.5,59.2h-4v0c-20.3,0.8-37.9,14.5-43.2,33.9l-0.1,0.3v0.6h3.2l1.1,0.3
									c4.8-17.4,20.5-29.8,38.7-30.7v22.1l4.3,0l0.3-22.2c18.5,0.9,34.2,13.4,38.7,30.9l4.2-1.1c-2.5-9.6-8.2-18.3-16.3-24.5
									C1585.6,62.9,1576.3,59.6,1566.5,59.2L1566.5,59.2L1566.5,59.2z"/>
							</g>
							<g>
								<path class="st4" d="M1523.3,93.7l-4.2,1.2c5.4,19.7,24,33.5,45.1,33.5V124C1545.1,124,1528.3,111.5,1523.3,93.7z"/>
							</g>
							<g>
								<path class="st4" d="M1572.1,96.8c18.9,3.6,33.3,20.2,33.3,40.1h4.3c0-22.2-16.3-40.8-37.6-44.5"/>
							</g>
							<g>
								<path class="st4" d="M1574.4,94.1c0,5.6-4.6,10.2-10.2,10.2s-10.2-4.6-10.2-10.2s4.6-10.2,10.2-10.2
									S1574.4,88.4,1574.4,94.1z M1570.1,94.1c0-3.2-2.6-5.9-5.9-5.9s-5.9,2.6-5.9,5.9s2.6,5.9,5.9,5.9
									C1567.5,99.9,1570.1,97.3,1570.1,94.1z"/>
							</g>
						</g>
						<g>
							<g>
								<path class="st4" d="M1652.5,1.4h-4v0c-20.3-0.8-37.9-14.5-43.2-33.9l-0.1-0.3v-0.6h3.2l1.1-0.3
									c4.8,17.4,20.5,29.8,38.7,30.7v-22.1l4.3,0l0.3,22.2c18.5-0.9,34.2-13.4,38.7-30.9l4.2,1.1c-2.5,9.6-8.2,18.3-16.3,24.5
									C1671.6-2.4,1662.3,1,1652.5,1.4L1652.5,1.4L1652.5,1.4z"/>
							</g>
						</g>
						<g>
							<g>
								<path class="st4" d="M1604.7,96h4.3V42.4c0-22.6,18.4-41,40.9-41s40.9,18.4,40.9,41V96h4.3V42.4c0-25-20.3-45.3-45.3-45.3
									s-45.3,20.3-45.3,45.3L1604.7,96L1604.7,96z"/>
							</g>
							<g>
								<path class="st4" d="M1647.9,130.8h4v0c20.3-0.8,37.9-14.5,43.2-33.9l0.1-0.3V96h-3.2l-1.1-0.3
									c-4.8,17.4-20.5,29.8-38.7,30.7v-22.1l-4.3,0l-0.3,22.2c-18.5-0.9-34.2-13.3-38.7-30.9l-4.2,1.1c2.5,9.6,8.2,18.3,16.3,24.5
									C1628.7,127,1638,130.4,1647.9,130.8L1647.9,130.8L1647.9,130.8z"/>
							</g>
							<g>
								<path class="st4" d="M1691,96.2l4.2-1.2c-5.4-19.7-24-33.5-45.1-33.5v4.3C1669.3,65.9,1686.1,78.4,1691,96.2z"/>
							</g>
							<g>
								<circle class="st4" cx="1650" cy="63.6" r="8"/>
								<path class="st4" d="M1639.8,63.6c0-5.6,4.6-10.2,10.2-10.2s10.2,4.6,10.2,10.2s-4.6,10.2-10.2,10.2
									S1639.8,69.2,1639.8,63.6z M1644.1,63.6c0,3.2,2.6,5.9,5.9,5.9s5.9-2.6,5.9-5.9s-2.6-5.9-5.9-5.9S1644.1,60.4,1644.1,63.6z"
									/>
							</g>
							<g>
								<path class="st4" d="M1642.3,93.1c-18.9-3.6-33.3-20.2-33.3-40.1h-4.3c0,22.2,16.3,40.8,37.6,44.5"/>
							</g>
							<g>
								<path class="st4" d="M1639.9,95.8c0-5.6,4.6-10.2,10.2-10.2s10.2,4.6,10.2,10.2s-4.6,10.2-10.2,10.2
									S1639.9,101.5,1639.9,95.8z M1644.2,95.8c0,3.2,2.6,5.9,5.9,5.9s5.9-2.6,5.9-5.9s-2.6-5.9-5.9-5.9
									C1646.9,89.9,1644.2,92.6,1644.2,95.8z"/>
							</g>
						</g>
						<g>
							<g>
								<path class="st4" d="M1690.9-36.2h4.3v53.6c0,22.6,18.4,40.9,40.9,40.9s40.9-18.4,40.9-41v-53.6h4.3v53.6
									c0,25-20.3,45.3-45.3,45.3s-45.3-20.3-45.3-45.3L1690.9-36.2L1690.9-36.2z"/>
							</g>
							<g>
								<circle class="st4" cx="1736.2" cy="-3.8" r="8"/>
								<path class="st4" d="M1736.2-14c5.6,0,10.2,4.6,10.2,10.2s-4.6,10.2-10.2,10.2s-10.2-4.6-10.2-10.2S1730.5-14,1736.2-14z
									 M1736.2,2.1c3.2,0,5.9-2.6,5.9-5.9s-2.6-5.9-5.9-5.9s-5.9,2.6-5.9,5.9C1730.3-0.6,1732.9,2.1,1736.2,2.1z"/>
							</g>
							<g>
								<path class="st4" d="M1728.5-33.3c-18.9,3.6-33.3,20.2-33.3,40.1h-4.3c0-22.2,16.3-40.8,37.6-44.5"/>
							</g>
						</g>
						<g>
							<g>
								<path class="st4" d="M1954.9-36.1h-4.3v53.6c0,22.6-18.4,41-40.9,41s-40.9-18.4-40.9-41v-53.6h-4.3v53.6
									c0,25,20.3,45.3,45.3,45.3s45.3-20.3,45.3-45.3L1954.9-36.1L1954.9-36.1z"/>
							</g>
							<g>
								<circle class="st4" cx="1909.6" cy="-3.7" r="8"/>
								<path class="st4" d="M1919.8-3.7c0,5.6-4.6,10.2-10.2,10.2s-10.2-4.6-10.2-10.2s4.6-10.2,10.2-10.2S1919.8-9.3,1919.8-3.7z
									 M1915.5-3.7c0-3.2-2.6-5.9-5.9-5.9s-5.9,2.6-5.9,5.9s2.6,5.9,5.9,5.9S1915.5-0.4,1915.5-3.7z"/>
							</g>
							<g>
								<path class="st4" d="M1917.3-33.2c18.9,3.6,33.3,20.2,33.3,40.1h4.3c0-22.2-16.3-40.8-37.6-44.5"/>
							</g>
						</g>
						<g>
							<g>
								<path class="st4" d="M1868.4,93.5h-4.3V39.9c0-22.6-18.4-41-40.9-41s-40.9,18.4-40.9,41v53.6h-4.3V39.9
									c0-25,20.3-45.3,45.3-45.3s45.3,20.3,45.3,45.3L1868.4,93.5L1868.4,93.5z"/>
							</g>
							<g>
								<path class="st4" d="M1825.2,128.3h-4v0c-20.3-0.8-37.9-14.5-43.2-33.9l-0.1-0.3v-0.6h3.2l1.1-0.3
									c4.8,17.4,20.5,29.8,38.7,30.7v-22.1l4.3,0l0.3,22.2c18.5-0.9,34.2-13.3,38.7-30.9l4.2,1.1c-2.5,9.6-8.2,18.3-16.3,24.5
									C1844.3,124.5,1835.1,127.8,1825.2,128.3L1825.2,128.3L1825.2,128.3z"/>
							</g>
							<g>
								<path class="st4" d="M1782.1,93.7l-4.2-1.2c5.4-19.7,24-33.5,45.1-33.5v4.3C1803.8,63.4,1787,75.9,1782.1,93.7z"/>
							</g>
							<g>
								<circle class="st4" cx="1823.1" cy="61.1" r="8"/>
								<path class="st4" d="M1823.1,71.3c-5.6,0-10.2-4.6-10.2-10.2s4.6-10.2,10.2-10.2s10.2,4.6,10.2,10.2
									S1828.7,71.3,1823.1,71.3z M1823.1,55.2c-3.2,0-5.9,2.6-5.9,5.9s2.6,5.9,5.9,5.9s5.9-2.6,5.9-5.9
									C1829,57.9,1826.3,55.2,1823.1,55.2z"/>
							</g>
							<g>
								<path class="st4" d="M1830.8,90.6c18.9-3.6,33.3-20.2,33.3-40.1h4.3c0,22.2-16.3,40.8-37.6,44.5"/>
							</g>
							<g>
								<path class="st4" d="M1823,103.5c-5.6,0-10.2-4.6-10.2-10.2s4.6-10.2,10.2-10.2s10.2,4.6,10.2,10.2S1828.6,103.5,1823,103.5
									z M1823,87.5c-3.2,0-5.9,2.6-5.9,5.9s2.6,5.9,5.9,5.9s5.9-2.6,5.9-5.9S1826.2,87.5,1823,87.5z"/>
							</g>
						</g>
						<g>
							<g>
								<path class="st4" d="M1781.8,92.8h-4.3v53.6c0,22.6-18.4,40.9-40.9,40.9s-40.9-18.4-40.9-40.9V92.8h-4.3v53.6
									c0,25,20.3,45.3,45.3,45.3s45.3-20.3,45.3-45.3L1781.8,92.8L1781.8,92.8z"/>
							</g>
							<g>
								<path class="st4" d="M1738.7,58h-4v0c-20.3,0.8-37.9,14.5-43.2,33.9l-0.1,0.3v0.6h3.2l1.1,0.3c4.8-17.4,20.5-29.8,38.7-30.7
									v22.1l4.3,0l0.3-22.2c18.5,0.9,34.2,13.4,38.7,30.9l4.2-1.1c-2.5-9.6-8.2-18.3-16.3-24.5C1757.8,61.8,1748.5,58.4,1738.7,58
									L1738.7,58L1738.7,58z"/>
							</g>
							<g>
								<path class="st4" d="M1695.5,92.6l-4.2,1.2c5.4,19.7,24,33.5,45.1,33.5v-4.3C1717.3,122.8,1700.4,110.4,1695.5,92.6z"/>
							</g>
							<g>
								<path class="st4" d="M1744.2,95.7c18.9,3.6,33.3,20.2,33.3,40.1h4.3c0-22.2-16.3-40.8-37.6-44.5"/>
							</g>
							<g>
								<path class="st4" d="M1746.6,92.9c0,5.6-4.6,10.2-10.2,10.2s-10.2-4.6-10.2-10.2s4.6-10.2,10.2-10.2
									S1746.6,87.3,1746.6,92.9z M1742.3,92.9c0-3.2-2.6-5.9-5.9-5.9s-5.9,2.6-5.9,5.9s2.6,5.9,5.9,5.9
									C1739.7,98.8,1742.3,96.2,1742.3,92.9z"/>
							</g>
						</g>
						<g>
							<g>
								<path class="st4" d="M1954.8,92.7h-4.3v53.6c0,22.6-18.4,40.9-40.9,40.9s-40.9-18.4-40.9-40.9V92.7h-4.3v53.6
									c0,25,20.3,45.3,45.3,45.3s45.3-20.3,45.3-45.3L1954.8,92.7L1954.8,92.7z"/>
							</g>
							<g>
								<path class="st4" d="M1911.6,58h-4v0c-20.3,0.8-37.9,14.5-43.2,33.9l-0.1,0.3v0.6h3.2l1.1,0.3c4.8-17.4,20.5-29.8,38.7-30.7
									v22.1l4.3,0l0.3-22.2c18.5,0.9,34.2,13.4,38.7,30.9l4.2-1.1c-2.5-9.6-8.2-18.3-16.3-24.5C1930.7,61.7,1921.4,58.4,1911.6,58
									L1911.6,58L1911.6,58z"/>
							</g>
							<g>
								<path class="st4" d="M1868.5,92.5l-4.2,1.2c5.4,19.7,24,33.4,45.1,33.4v-4.3C1890.2,122.8,1873.4,110.3,1868.5,92.5z"/>
							</g>
							<g>
								<path class="st4" d="M1917.2,95.6c18.9,3.6,33.3,20.2,33.3,40.1h4.3c0-22.2-16.3-40.8-37.6-44.5"/>
							</g>
							<g>
								<path class="st4" d="M1919.6,92.9c0,5.6-4.6,10.2-10.2,10.2s-10.2-4.6-10.2-10.2s4.6-10.2,10.2-10.2
									C1915,82.7,1919.6,87.3,1919.6,92.9z M1915.2,92.9c0-3.2-2.6-5.9-5.9-5.9s-5.9,2.6-5.9,5.9s2.6,5.9,5.9,5.9
									S1915.2,96.1,1915.2,92.9z"/>
							</g>
						</g>
						<g>
							<g>
								<path class="st4" d="M962.3,0.6h-4v0C938-0.2,920.3-13.9,915-33.3l-0.1-0.3v-0.6h3.2l1.1-0.3C924-17,939.7-4.7,957.9-3.8
									v-22.1l4.3,0l0.3,22.2c18.5-0.9,34.2-13.4,38.7-30.9l4.2,1.1c-2.5,9.6-8.2,18.3-16.3,24.5C981.4-3.1,972.1,0.2,962.3,0.6
									L962.3,0.6L962.3,0.6z"/>
							</g>
						</g>
						<g>
							<g>
								<path class="st4" d="M914.5,95.2h4.3V41.6c0-22.6,18.4-41,41-41s41,18.4,41,41v53.6h4.3V41.6c0-25-20.3-45.3-45.3-45.3
									c-25,0-45.3,20.3-45.3,45.3L914.5,95.2L914.5,95.2z"/>
							</g>
							<g>
								<path class="st4" d="M957.7,130h4v0c20.3-0.8,37.9-14.5,43.2-33.9l0.1-0.3v-0.6h-3.2l-1.1-0.3
									c-4.8,17.4-20.5,29.8-38.7,30.7v-22.1l-4.3,0l-0.3,22.2c-18.5-0.9-34.2-13.3-38.7-30.9l-4.2,1.1c2.5,9.6,8.2,18.3,16.3,24.5
									C938.5,126.2,947.8,129.6,957.7,130L957.7,130L957.7,130z"/>
							</g>
							<g>
								<path class="st4" d="M1000.8,95.4l4.2-1.2c-5.4-19.7-24-33.5-45.1-33.5v4.3C979.1,65.2,995.9,77.6,1000.8,95.4z"/>
							</g>
							<g>
								<circle class="st4" cx="959.8" cy="62.8" r="8"/>
								<path class="st4" d="M949.6,62.8c0-5.6,4.6-10.2,10.2-10.2S970,57.2,970,62.8S965.4,73,959.8,73S949.6,68.5,949.6,62.8z
									 M953.9,62.8c0,3.2,2.6,5.9,5.9,5.9s5.9-2.6,5.9-5.9S963,57,959.8,57S953.9,59.6,953.9,62.8z"/>
							</g>
							<g>
								<path class="st4" d="M952.1,92.3c-18.9-3.6-33.3-20.2-33.3-40.1h-4.3c0,22.2,16.3,40.8,37.6,44.5"/>
							</g>
							<g>
								<path class="st4" d="M949.7,95.1c0-5.6,4.6-10.2,10.2-10.2s10.2,4.6,10.2,10.2s-4.6,10.2-10.2,10.2
									C954.3,105.3,949.7,100.7,949.7,95.1z M954,95.1c0,3.2,2.6,5.9,5.9,5.9s5.9-2.6,5.9-5.9s-2.6-5.9-5.9-5.9
									C956.7,89.2,954,91.8,954,95.1z"/>
							</g>
						</g>
						<g>
							<g>
								<path class="st4" d="M919-33.8h-4.3v53.6c0,22.6-18.4,41-41,41s-41-18.4-41-41v-53.6h-4.3v53.6c0,25,20.3,45.3,45.3,45.3
									c25,0,45.3-20.3,45.3-45.3L919-33.8L919-33.8z"/>
							</g>
							<g>
								<path class="st4" d="M832.7-34l-4.2,1.2c5.4,19.7,24,33.5,45.1,33.5v-4.3C854.4-3.7,837.6-16.1,832.7-34z"/>
							</g>
							<g>
								<circle class="st4" cx="873.7" cy="-1.4" r="8"/>
								<path class="st4" d="M883.9-1.4c0,5.6-4.6,10.2-10.2,10.2s-10.2-4.6-10.2-10.2s4.6-10.2,10.2-10.2S883.9-7,883.9-1.4z
									 M879.6-1.4c0-3.2-2.6-5.9-5.9-5.9s-5.9,2.6-5.9,5.9s2.6,5.9,5.9,5.9S879.6,1.9,879.6-1.4z"/>
							</g>
							<g>
								<path class="st4" d="M881.4-30.8c18.9,3.6,33.3,20.2,33.3,40.1h4.3c0-22.2-16.3-40.8-37.6-44.5"/>
							</g>
						</g>
						<g>
							<g>
								<path class="st4" d="M789.2,1.3h-4v0c-20.3-0.8-37.9-14.5-43.2-33.9l-0.1-0.3v-0.6h3.2l1.1-0.3
									c4.8,17.4,20.5,29.8,38.7,30.7v-22.1l4.3,0l0.3,22.2C808-4,823.7-16.4,828.2-34l4.2,1.1c-2.5,9.6-8.2,18.3-16.3,24.5
									C808.4-2.4,799.1,0.9,789.2,1.3L789.2,1.3L789.2,1.3z"/>
							</g>
						</g>
						<g>
							<g>
								<path class="st4" d="M654.9-33.6h4.3V20c0,22.6,18.4,41,41,41s41-18.4,41-41v-53.6h4.3V20c0,25-20.3,45.3-45.3,45.3
									s-45.3-20.3-45.3-45.3L654.9-33.6L654.9-33.6z"/>
							</g>
							<g>
								<path class="st4" d="M741.2-33.8l4.2,1.2C740-13,721.4,0.8,700.3,0.8v-4.3C719.5-3.6,736.3-16,741.2-33.8z"/>
							</g>
							<g>
								<circle class="st4" cx="700.2" cy="-1.2" r="8"/>
								<path class="st4" d="M700.2-11.4c5.6,0,10.2,4.6,10.2,10.2S705.8,9,700.2,9S690,4.4,690-1.2S694.6-11.4,700.2-11.4z
									 M700.2,4.6c3.2,0,5.9-2.6,5.9-5.9s-2.6-5.9-5.9-5.9s-5.9,2.6-5.9,5.9S697,4.6,700.2,4.6z"/>
							</g>
							<g>
								<path class="st4" d="M692.5-30.7c-18.9,3.6-33.3,20.2-33.3,40.1h-4.3c0-22.2,16.3-40.8,37.6-44.5"/>
							</g>
						</g>
						<g>
							<g>
								<path class="st4" d="M741.5,95.9h4.3V42.3c0-22.6,18.4-41,41-41s41,18.4,41,41v53.6h4.3V42.3c0-25-20.3-45.3-45.3-45.3
									s-45.3,20.3-45.3,45.3L741.5,95.9L741.5,95.9z"/>
							</g>
							<g>
								<path class="st4" d="M784.6,130.7h4v0c20.3-0.8,37.9-14.5,43.2-33.9l0.1-0.3v-0.6h-3.2l-1.1-0.3
									c-4.8,17.4-20.5,29.8-38.7,30.7v-22.1l-4.3,0l-0.3,22.2c-18.5-0.9-34.2-13.3-38.7-30.9l-4.2,1.1c2.5,9.6,8.2,18.3,16.3,24.5
									C765.5,127,774.8,130.3,784.6,130.7L784.6,130.7L784.6,130.7z"/>
							</g>
							<g>
								<path class="st4" d="M827.8,96.2l4.2-1.2c-5.4-19.7-24-33.5-45.1-33.5v4.3C806,65.9,822.8,78.3,827.8,96.2z"/>
							</g>
							<g>
								<circle class="st4" cx="786.7" cy="63.5" r="8"/>
								<path class="st4" d="M776.5,63.5c0-5.6,4.6-10.2,10.2-10.2s10.2,4.6,10.2,10.2s-4.6,10.2-10.2,10.2
									C781.1,73.8,776.5,69.2,776.5,63.5z M780.9,63.5c0,3.2,2.6,5.9,5.9,5.9s5.9-2.6,5.9-5.9s-2.6-5.9-5.9-5.9
									S780.9,60.3,780.9,63.5z"/>
							</g>
							<g>
								<path class="st4" d="M779,93c-18.9-3.6-33.3-20.2-33.3-40.1h-4.3c0,22.2,16.3,40.8,37.6,44.5"/>
							</g>
							<g>
								<path class="st4" d="M776.7,95.8c0-5.6,4.6-10.2,10.2-10.2s10.2,4.6,10.2,10.2s-4.6,10.2-10.2,10.2
									C781.2,106,776.7,101.4,776.7,95.8z M781,95.8c0,3.2,2.6,5.9,5.9,5.9s5.9-2.6,5.9-5.9s-2.6-5.9-5.9-5.9
									C783.6,89.9,781,92.5,781,95.8z"/>
							</g>
						</g>
						<g>
							<g>
								<path class="st4" d="M828,95.2h4.3v53.6c0,22.6,18.4,40.9,41,40.9s41-18.4,41-40.9V95.2h4.3v53.6c0,25-20.3,45.3-45.3,45.3
									c-25,0-45.3-20.3-45.3-45.3L828,95.2L828,95.2z"/>
							</g>
							<g>
								<path class="st4" d="M871.2,60.5h4v0c20.3,0.8,37.9,14.5,43.2,33.9l0.1,0.3v0.6h-3.2l-1.1,0.3
									c-4.8-17.4-20.5-29.8-38.7-30.7V87l-4.3,0l-0.3-22.2c-18.5,0.9-34.2,13.3-38.7,30.9l-4.2-1.1c2.5-9.6,8.2-18.3,16.3-24.5
									C852,64.2,861.3,60.9,871.2,60.5L871.2,60.5L871.2,60.5z"/>
							</g>
							<g>
								<path class="st4" d="M914.3,95l4.2,1.2c-5.4,19.7-24,33.4-45.1,33.4v-4.3C892.6,125.3,909.4,112.8,914.3,95z"/>
							</g>
							<g>
								<path class="st4" d="M865.6,98.1c-18.9,3.6-33.3,20.2-33.3,40.1H828c0-22.2,16.3-40.8,37.6-44.5"/>
							</g>
							<g>
								<path class="st4" d="M873.4,85.2c5.6,0,10.2,4.6,10.2,10.2s-4.6,10.2-10.2,10.2s-10.2-4.6-10.2-10.2S867.8,85.2,873.4,85.2z
									 M873.4,101.3c3.2,0,5.9-2.6,5.9-5.9s-2.6-5.9-5.9-5.9s-5.9,2.6-5.9,5.9S870.2,101.3,873.4,101.3z"/>
							</g>
						</g>
						<g>
							<g>
								<path class="st4" d="M655.1,95.2h4.3v53.6c0,22.6,18.4,40.9,41,40.9s41-18.4,41-40.9V95.2h4.3v53.6
									c0,25-20.3,45.3-45.3,45.3s-45.3-20.3-45.3-45.3L655.1,95.2L655.1,95.2z"/>
							</g>
							<g>
								<path class="st4" d="M698.2,60.4h4v0c20.3,0.8,37.9,14.5,43.2,33.9l0.1,0.3v0.6h-3.2l-1.1,0.3
									c-4.8-17.4-20.5-29.8-38.7-30.7v22.1l-4.3,0L698,64.8c-18.5,0.9-34.2,13.3-38.7,30.9l-4.2-1.1c2.5-9.6,8.2-18.3,16.3-24.5
									C679.1,64.1,688.4,60.8,698.2,60.4L698.2,60.4L698.2,60.4z"/>
							</g>
							<g>
								<path class="st4" d="M741.4,94.9l4.2,1.2c-5.4,19.7-24,33.5-45.1,33.5v-4.3C719.6,125.2,736.5,112.8,741.4,94.9z"/>
							</g>
							<g>
								<path class="st4" d="M692.7,98.1c-18.9,3.6-33.3,20.2-33.3,40.1h-4.3c0-22.2,16.3-40.8,37.6-44.5"/>
							</g>
							<g>
								<path class="st4" d="M700.5,85.1c5.6,0,10.2,4.6,10.2,10.2s-4.6,10.2-10.2,10.2s-10.2-4.6-10.2-10.2
									C690.3,89.7,694.9,85.1,700.5,85.1z M700.5,101.2c3.2,0,5.9-2.6,5.9-5.9c0-3.2-2.6-5.9-5.9-5.9s-5.9,2.6-5.9,5.9
									S697.2,101.2,700.5,101.2z"/>
							</g>
						</g>
						<g>
							<g>
								<path class="st4" d="M612.2,2.6h4v0c20.3-0.8,37.9-14.5,43.2-33.9l0.1-0.3v-0.6h-3.2l-1.1-0.3C650.5-15,634.8-2.7,616.6-1.8
									v-22.1l-4.3,0L612-1.8c-18.5-0.9-34.2-13.4-38.7-30.9l-4.2,1.1c2.5,9.6,8.2,18.3,16.3,24.5C593.1-1.1,602.4,2.2,612.2,2.6
									L612.2,2.6L612.2,2.6z"/>
							</g>
						</g>
						<g>
							<g>
								<path class="st4" d="M660,97.2h-4.3V43.7c0-22.6-18.4-41-41-41s-41,18.4-41,41v53.6h-4.3V43.7c0-25,20.3-45.3,45.3-45.3
									S660,18.7,660,43.7L660,97.2L660,97.2z"/>
							</g>
							<g>
								<path class="st4" d="M616.8,132h-4v0c-20.3-0.8-37.9-14.5-43.2-33.9l-0.1-0.3v-0.6h3.2l1.1-0.3
									c4.8,17.4,20.5,29.8,38.7,30.7v-22.1l4.3,0l0.3,22.2c18.5-0.9,34.2-13.3,38.7-30.9l4.2,1.1c-2.5,9.6-8.2,18.3-16.3,24.5
									C636,128.3,626.7,131.6,616.8,132L616.8,132L616.8,132z"/>
							</g>
							<g>
								<path class="st4" d="M573.7,97.5l-4.2-1.2c5.4-19.7,24-33.5,45.1-33.5v4.3C595.5,67.2,578.7,79.6,573.7,97.5z"/>
							</g>
							<g>
								<circle class="st4" cx="614.8" cy="64.8" r="8"/>
								<path class="st4" d="M614.8,75.1c-5.6,0-10.2-4.6-10.2-10.2s4.6-10.2,10.2-10.2S625,59.2,625,64.8S620.4,75.1,614.8,75.1z
									 M614.8,59c-3.2,0-5.9,2.6-5.9,5.9s2.6,5.9,5.9,5.9s5.9-2.6,5.9-5.9C620.6,61.6,618,59,614.8,59z"/>
							</g>
							<g>
								<path class="st4" d="M622.4,94.3c18.9-3.6,33.3-20.2,33.3-40.1h4.3c0,22.2-16.3,40.8-37.6,44.5"/>
							</g>
							<g>
								<path class="st4" d="M614.6,107.3c-5.6,0-10.2-4.6-10.2-10.2s4.6-10.2,10.2-10.2s10.2,4.6,10.2,10.2
									S620.2,107.3,614.6,107.3z M614.6,91.2c-3.2,0-5.9,2.6-5.9,5.9s2.6,5.9,5.9,5.9s5.9-2.6,5.9-5.9S617.8,91.2,614.6,91.2z"/>
							</g>
						</g>
						<g>
							<g>
								<path class="st4" d="M574.2-33.5h-4.3v53.6c0,22.6-18.4,41-41,41s-41-18.4-41-41v-53.6h-4.3v53.6c0,25,20.3,45.3,45.3,45.3
									c25,0,45.3-20.3,45.3-45.3L574.2-33.5L574.2-33.5z"/>
							</g>
							<g>
								<path class="st4" d="M487.9-33.7l-4.2,1.2c5.4,19.7,24,33.5,45.1,33.5v-4.3C509.7-3.4,492.9-15.9,487.9-33.7z"/>
							</g>
							<g>
								<circle class="st4" cx="529" cy="-1.1" r="8"/>
								<path class="st4" d="M539.2-1.1c0,5.6-4.6,10.2-10.2,10.2s-10.2-4.6-10.2-10.2s4.6-10.2,10.2-10.2S539.2-6.7,539.2-1.1z
									 M534.8-1.1c0-3.2-2.6-5.9-5.9-5.9s-5.9,2.6-5.9,5.9s2.6,5.9,5.9,5.9S534.8,2.2,534.8-1.1z"/>
							</g>
							<g>
								<path class="st4" d="M536.6-30.6c18.9,3.6,33.3,20.2,33.3,40.1h4.3c0-22.2-16.3-40.8-37.6-44.5"/>
							</g>
						</g>
						<g>
							<g>
								<path class="st4" d="M444.5,1.6h-4v0c-20.3-0.8-37.9-14.5-43.2-33.9l-0.1-0.3v-0.6h3.2l1.1-0.3C406.2-16,422-3.7,440.2-2.8
									v-22.1l4.3,0l0.3,22.2c18.5-0.9,34.2-13.4,38.7-30.9l4.2,1.1c-2.5,9.6-8.2,18.3-16.3,24.5C463.7-2.1,454.4,1.2,444.5,1.6
									L444.5,1.6z"/>
							</g>
						</g>
						<g>
							<g>
								<path class="st4" d="M310.2-33.4h4.3v53.6c0,22.6,18.4,41,41,41c22.6,0,41-18.4,41-41v-53.6h4.3v53.6
									c0,25-20.3,45.3-45.3,45.3s-45.3-20.3-45.3-45.3L310.2-33.4L310.2-33.4z"/>
							</g>
							<g>
								<path class="st4" d="M396.5-33.6l4.2,1.2C395.2-12.7,376.7,1,355.6,1v-4.3C374.8-3.3,391.6-15.8,396.5-33.6z"/>
							</g>
							<g>
								<circle class="st4" cx="355.5" cy="-1" r="8"/>
								<path class="st4" d="M355.5-11.2c5.6,0,10.2,4.6,10.2,10.2s-4.6,10.2-10.2,10.2S345.3,4.7,345.3-1S349.9-11.2,355.5-11.2z
									 M355.5,4.9c3.2,0,5.9-2.6,5.9-5.9s-2.6-5.9-5.9-5.9s-5.9,2.6-5.9,5.9C349.6,2.3,352.2,4.9,355.5,4.9z"/>
							</g>
							<g>
								<path class="st4" d="M347.8-30.5c-18.9,3.6-33.3,20.2-33.3,40.1h-4.3c0-22.2,16.3-40.8,37.6-44.5"/>
							</g>
						</g>
						<g>
							<g>
								<path class="st4" d="M396.7,96.2h4.3V42.6c0-22.6,18.4-41,41-41c22.6,0,41,18.4,41,41v53.6h4.3V42.6
									c0-25-20.3-45.3-45.3-45.3s-45.3,20.3-45.3,45.3L396.7,96.2L396.7,96.2z"/>
							</g>
							<g>
								<path class="st4" d="M439.9,131h4v0c20.3-0.8,37.9-14.5,43.2-33.9l0.1-0.3v-0.6H484l-1.1-0.3c-4.8,17.4-20.5,29.8-38.7,30.7
									v-22.1l-4.3,0l-0.3,22.2c-18.5-0.9-34.2-13.3-38.7-30.9l-4.2,1.1c2.5,9.6,8.2,18.3,16.3,24.5
									C420.8,127.2,430,130.6,439.9,131L439.9,131z"/>
							</g>
							<g>
								<path class="st4" d="M483,96.4l4.2-1.2c-5.4-19.7-24-33.5-45.1-33.5v4.3C461.3,66.2,478.1,78.6,483,96.4z"/>
							</g>
							<g>
								<circle class="st4" cx="442" cy="63.8" r="8"/>
								<path class="st4" d="M431.8,63.8c0-5.6,4.6-10.2,10.2-10.2s10.2,4.6,10.2,10.2S447.6,74,442,74
									C436.4,74,431.8,69.4,431.8,63.8z M436.1,63.8c0,3.2,2.6,5.9,5.9,5.9s5.9-2.6,5.9-5.9S445.2,58,442,58
									C438.8,57.9,436.1,60.6,436.1,63.8z"/>
							</g>
							<g>
								<path class="st4" d="M434.3,93.3c-18.9-3.6-33.3-20.2-33.3-40.1h-4.3c0,22.2,16.3,40.8,37.6,44.5"/>
							</g>
							<g>
								<path class="st4" d="M431.9,96.1c0-5.6,4.6-10.2,10.2-10.2s10.2,4.6,10.2,10.2s-4.6,10.2-10.2,10.2S431.9,101.7,431.9,96.1z
									 M436.3,96.1c0,3.2,2.6,5.9,5.9,5.9s5.9-2.6,5.9-5.9s-2.6-5.9-5.9-5.9C438.9,90.2,436.3,92.8,436.3,96.1z"/>
							</g>
						</g>
						<g>
							<g>
								<path class="st4" d="M483.3,95.5h4.3v53.6c0,22.6,18.4,40.9,41,40.9s41-18.4,41-40.9V95.5h4.3v53.6
									c0,25-20.3,45.3-45.3,45.3c-25,0-45.3-20.3-45.3-45.3L483.3,95.5L483.3,95.5z"/>
							</g>
							<g>
								<path class="st4" d="M526.5,60.7h4v0c20.3,0.8,37.9,14.5,43.2,33.9l0.1,0.3v0.6h-3.2l-1.1,0.3C564.8,78.4,549,66,530.8,65.1
									v22.1l-4.3,0l-0.3-22.2C507.7,66,492,78.5,487.5,96l-4.2-1.1c2.5-9.6,8.2-18.3,16.3-24.5C507.3,64.5,516.6,61.2,526.5,60.7
									L526.5,60.7L526.5,60.7z"/>
							</g>
							<g>
								<path class="st4" d="M569.6,95.3l4.2,1.2c-5.4,19.7-24,33.4-45.1,33.4v-4.3C547.8,125.6,564.7,113.1,569.6,95.3z"/>
							</g>
							<g>
								<path class="st4" d="M520.9,98.4c-18.9,3.6-33.3,20.2-33.3,40.1h-4.3c0-22.2,16.3-40.8,37.6-44.5"/>
							</g>
							<g>
								<path class="st4" d="M528.7,85.5c5.6,0,10.2,4.6,10.2,10.2s-4.6,10.2-10.2,10.2s-10.2-4.6-10.2-10.2S523.1,85.5,528.7,85.5z
									 M528.7,101.5c3.2,0,5.9-2.6,5.9-5.9s-2.6-5.9-5.9-5.9s-5.9,2.6-5.9,5.9S525.5,101.5,528.7,101.5z"/>
							</g>
						</g>
						<g>
							<g>
								<path class="st4" d="M310.3,95.4h4.3V149c0,22.6,18.4,40.9,41,40.9c22.6,0,41-18.4,41-40.9V95.4h4.3V149
									c0,25-20.3,45.3-45.3,45.3S310.4,174,310.4,149L310.3,95.4L310.3,95.4z"/>
							</g>
							<g>
								<path class="st4" d="M353.5,60.7h4v0c20.3,0.8,37.9,14.5,43.2,33.9l0.1,0.3v0.6h-3.2l-1.1,0.3
									c-4.8-17.4-20.5-29.8-38.7-30.7v22.1l-4.3,0l-0.3-22.2C334.8,66,319,78.4,314.5,96l-4.2-1.1c2.5-9.6,8.2-18.3,16.3-24.5
									C334.4,64.4,343.7,61.1,353.5,60.7L353.5,60.7z"/>
							</g>
							<g>
								<path class="st4" d="M396.6,95.2l4.2,1.2c-5.4,19.7-24,33.5-45.1,33.5v-4.3C374.9,125.5,391.7,113.1,396.6,95.2z"/>
							</g>
							<g>
								<path class="st4" d="M348,98.3c-18.9,3.6-33.3,20.2-33.3,40.1h-4.3c0-22.2,16.3-40.8,37.6-44.5"/>
							</g>
							<g>
								<path class="st4" d="M355.8,85.4c5.6,0,10.2,4.6,10.2,10.2s-4.6,10.2-10.2,10.2s-10.2-4.6-10.2-10.2S350.1,85.4,355.8,85.4z
									 M355.8,101.5c3.2,0,5.9-2.6,5.9-5.9c0-3.2-2.6-5.9-5.9-5.9s-5.9,2.6-5.9,5.9C349.9,98.8,352.5,101.5,355.8,101.5z"/>
							</g>
						</g>
						<g>
							<g>
								<path class="st4" d="M267.5,2.9h4v0c20.3-0.8,37.9-14.5,43.2-33.9l0.1-0.3v-0.6h-3.2l-1.1-0.3
									c-4.8,17.4-20.5,29.8-38.7,30.7v-22.1l-4.3,0l-0.3,22.2c-18.5-0.9-34.2-13.4-38.7-30.9l-4.2,1.1c2.5,9.6,8.2,18.3,16.3,24.5
									C248.4-0.8,257.7,2.5,267.5,2.9L267.5,2.9L267.5,2.9z"/>
							</g>
						</g>
						<g>
							<g>
								<path class="st4" d="M315.3,97.5H311V43.9c0-22.6-18.4-41-41-41s-40.9,18.4-40.9,41v53.6h-4.3V43.9
									c0-25,20.3-45.3,45.3-45.3s45.3,20.3,45.3,45.3L315.3,97.5L315.3,97.5z"/>
							</g>
							<g>
								<path class="st4" d="M272.1,132.3h-4v0c-20.3-0.8-37.9-14.5-43.2-33.9l-0.1-0.3v-0.6h3.2l1.1-0.3
									c4.8,17.4,20.5,29.8,38.7,30.7v-22.1l4.3,0l0.3,22.2c18.5-0.9,34.2-13.3,38.7-30.9l4.2,1.1c-2.5,9.6-8.2,18.3-16.3,24.5
									C291.3,128.5,282,131.9,272.1,132.3L272.1,132.3L272.1,132.3z"/>
							</g>
							<g>
								<path class="st4" d="M229,97.7l-4.2-1.2c5.4-19.7,24-33.5,45.1-33.5v4.3C250.7,67.5,233.9,79.9,229,97.7z"/>
							</g>
							<g>
								<circle class="st4" cx="270" cy="65.1" r="8"/>
								<path class="st4" d="M270,75.3c-5.6,0-10.2-4.6-10.2-10.2s4.6-10.2,10.2-10.2s10.2,4.6,10.2,10.2S275.7,75.3,270,75.3z
									 M270,59.2c-3.2,0-5.9,2.6-5.9,5.9c0,3.2,2.6,5.9,5.9,5.9s5.9-2.6,5.9-5.9C275.9,61.9,273.3,59.2,270,59.2z"/>
							</g>
							<g>
								<path class="st4" d="M277.7,94.6C296.6,91,311,74.4,311,54.5h4.3c0,22.2-16.3,40.8-37.6,44.5"/>
							</g>
							<g>
								<path class="st4" d="M269.9,107.6c-5.6,0-10.2-4.6-10.2-10.2s4.6-10.2,10.2-10.2s10.2,4.6,10.2,10.2
									S275.5,107.6,269.9,107.6z M269.9,91.5c-3.2,0-5.9,2.6-5.9,5.9s2.6,5.9,5.9,5.9s5.9-2.6,5.9-5.9S273.1,91.5,269.9,91.5z"/>
							</g>
						</g>
						<g>
							<g>
								<path class="st4" d="M229.1-34.7h-4.3v53.6c0,22.6-18.4,41-40.9,41s-40.9-18.4-40.9-41v-53.6h-4.3v53.6
									c0,25,20.3,45.3,45.3,45.3s45.3-20.3,45.3-45.3L229.1-34.7L229.1-34.7z"/>
							</g>
							<g>
								<circle class="st4" cx="183.9" cy="-2.3" r="8"/>
								<path class="st4" d="M194.1-2.3c0,5.6-4.6,10.2-10.2,10.2s-10.2-4.6-10.2-10.2s4.6-10.2,10.2-10.2S194.1-7.9,194.1-2.3z
									 M189.7-2.3c0-3.2-2.6-5.9-5.9-5.9c-3.2,0-5.9,2.6-5.9,5.9s2.6,5.9,5.9,5.9C187.1,3.6,189.7,1,189.7-2.3z"/>
							</g>
							<g>
								<path class="st4" d="M191.5-31.8c18.9,3.6,33.3,20.2,33.3,40.1h4.3c0-22.2-16.3-40.8-37.6-44.5"/>
							</g>
						</g>
						<g>
							<g>
								<path class="st4" d="M99.4,0.4h-4v0C75.1-0.4,57.5-14.1,52.2-33.5l-0.1-0.3v-0.6h3.2l1.1-0.3C61.1-17.2,76.8-4.9,95.1-4
									v-22.1l4.3,0L99.7-4c18.5-0.9,34.2-13.4,38.7-30.9l4.2,1.1c-2.5,9.6-8.2,18.3-16.3,24.5C118.5-3.3,109.3,0,99.4,0.4
									L99.4,0.4z"/>
							</g>
						</g>
						<g>
							<g>
								<path class="st4" d="M-34.9-34.5h4.3V19c0,22.6,18.4,41,41,41s41-18.4,41-41v-53.6h4.3V19c0,25-20.3,45.3-45.3,45.3
									S-34.9,44-34.9,19L-34.9-34.5L-34.9-34.5z"/>
							</g>
							<g>
								<circle class="st4" cx="10.4" cy="-2.2" r="8"/>
								<path class="st4" d="M10.4-12.4c5.6,0,10.2,4.6,10.2,10.2S16,8.1,10.4,8.1S0.2,3.5,0.2-2.2S4.7-12.4,10.4-12.4z M10.4,3.7
									c3.2,0,5.9-2.6,5.9-5.9S13.6-8,10.4-8S4.5-5.4,4.5-2.2S7.1,3.7,10.4,3.7z"/>
							</g>
							<g>
								<path class="st4" d="M2.7-31.6C-16.2-28-30.6-11.4-30.6,8.4h-4.3c0-22.2,16.3-40.8,37.6-44.5"/>
							</g>
						</g>
						<g>
							<g>
								<path class="st4" d="M51.6,95H56V41.4c0-22.6,18.4-41,41-41s40.9,18.4,40.9,41V95h4.3V41.4c0-25-20.3-45.3-45.3-45.3
									S51.6,16.5,51.6,41.4L51.6,95L51.6,95z"/>
							</g>
							<g>
								<path class="st4" d="M94.8,129.8h4v0c20.3-0.8,37.9-14.5,43.2-33.9l0.1-0.3V95h-3.2l-1.1-0.3c-4.8,17.4-20.5,29.8-38.7,30.7
									v-22.1l-4.3,0l-0.3,22.2C76,124.5,60.3,112,55.8,94.5l-4.2,1.1c2.5,9.6,8.2,18.3,16.3,24.5C75.7,126,84.9,129.4,94.8,129.8
									L94.8,129.8z"/>
							</g>
							<g>
								<path class="st4" d="M137.9,95.2l4.2-1.2c-5.4-19.7-24-33.5-45.1-33.5V65C116.2,65,133,77.4,137.9,95.2z"/>
							</g>
							<g>
								<circle class="st4" cx="96.9" cy="62.6" r="8"/>
								<path class="st4" d="M86.7,62.6c0-5.6,4.6-10.2,10.2-10.2s10.2,4.6,10.2,10.2s-4.6,10.2-10.2,10.2S86.7,68.3,86.7,62.6z
									 M91,62.6c0,3.2,2.6,5.9,5.9,5.9s5.9-2.6,5.9-5.9s-2.6-5.9-5.9-5.9S91,59.4,91,62.6z"/>
							</g>
							<g>
								<path class="st4" d="M89.2,92.1C70.3,88.5,56,71.9,56,52h-4.3c0,22.2,16.3,40.8,37.6,44.5"/>
							</g>
							<g>
								<path class="st4" d="M86.8,94.9c0-5.6,4.6-10.2,10.2-10.2s10.2,4.6,10.2,10.2s-4.6,10.2-10.2,10.2S86.8,100.5,86.8,94.9z
									 M91.2,94.9c0,3.2,2.6,5.9,5.9,5.9c3.2,0,5.9-2.6,5.9-5.9c0-3.2-2.6-5.9-5.9-5.9C93.8,89,91.2,91.6,91.2,94.9z"/>
							</g>
						</g>
						<g>
							<g>
								<path class="st4" d="M138.2,94.3h4.3v53.6c0,22.6,18.4,40.9,40.9,40.9s40.9-18.4,40.9-40.9V94.3h4.3v53.6
									c0,25-20.3,45.3-45.3,45.3s-45.3-20.3-45.3-45.3L138.2,94.3L138.2,94.3z"/>
							</g>
							<g>
								<path class="st4" d="M181.4,59.5h4v0c20.3,0.8,37.9,14.5,43.2,33.9l0.1,0.3v0.6h-3.2l-1.1,0.3
									c-4.8-17.4-20.5-29.8-38.7-30.7v22.1l-4.3,0l-0.3-22.2c-18.5,0.9-34.2,13.4-38.7,30.9l-4.2-1.1c2.5-9.6,8.2-18.3,16.3-24.5
									C162.2,63.3,171.5,60,181.4,59.5L181.4,59.5z"/>
							</g>
							<g>
								<path class="st4" d="M224.5,94.1l4.2,1.2c-5.4,19.7-24,33.4-45.1,33.4v-4.3C202.7,124.4,219.6,111.9,224.5,94.1z"/>
							</g>
							<g>
								<path class="st4" d="M175.8,97.2c-18.9,3.6-33.3,20.2-33.3,40.1h-4.3c0-22.2,16.3-40.8,37.6-44.5"/>
							</g>
							<g>
								<path class="st4" d="M183.6,84.3c5.6,0,10.2,4.6,10.2,10.2s-4.6,10.2-10.2,10.2s-10.2-4.6-10.2-10.2S178,84.3,183.6,84.3z
									 M183.6,100.3c3.2,0,5.9-2.6,5.9-5.9s-2.6-5.9-5.9-5.9c-3.2,0-5.9,2.6-5.9,5.9S180.4,100.3,183.6,100.3z"/>
							</g>
						</g>
						<g>
							<g>
								<path class="st4" d="M-34.8,94.2h4.3v53.6c0,22.6,18.4,40.9,41,40.9s41-18.4,41-40.9V94.2h4.3v53.6
									c0,25-20.3,45.3-45.3,45.3s-45.3-20.3-45.3-45.3L-34.8,94.2L-34.8,94.2z"/>
							</g>
							<g>
								<path class="st4" d="M8.4,59.5h4v0C32.7,60.3,50.3,74,55.7,93.4l0.1,0.3v0.6h-3.2l-1.1,0.3C46.7,77.1,31,64.8,12.8,63.9V86
									l-4.3,0L8.1,63.9c-18.5,0.9-34.2,13.4-38.7,30.9l-4.2-1.1c2.5-9.6,8.2-18.3,16.3-24.5C-10.7,63.2-1.5,59.9,8.4,59.5
									L8.4,59.5z"/>
							</g>
							<g>
								<path class="st4" d="M51.5,94l4.2,1.2c-5.4,19.7-24,33.4-45.1,33.4v-4.3C29.8,124.3,46.6,111.9,51.5,94z"/>
							</g>
							<g>
								<path class="st4" d="M2.8,97.2c-18.9,3.6-33.3,20.2-33.3,40.1h-4.3c0-22.2,16.3-40.8,37.6-44.5"/>
							</g>
							<g>
								<path class="st4" d="M10.7,84.2c5.6,0,10.2,4.6,10.2,10.2s-4.6,10.2-10.2,10.2S0.4,100,0.4,94.4S5,84.2,10.7,84.2z
									 M10.7,100.3c3.2,0,5.9-2.6,5.9-5.9s-2.6-5.9-5.9-5.9s-5.9,2.6-5.9,5.9S7.4,100.3,10.7,100.3z"/>
							</g>
						</g>
					</g>
				</g>
			</g>
		</g>
	</g>
</g>
</svg>
