<?xml version="1.0" encoding="utf-8"?>
<!-- Generator: Adobe Illustrator 26.0.0, SVG Export Plug-In . SVG Version: 6.00 Build 0)  -->
<svg version="1.1" id="Layer_1" xmlns="http://www.w3.org/2000/svg" xmlns:xlink="http://www.w3.org/1999/xlink" x="0px" y="0px"
	 viewBox="0 0 1920 111.41" style="enable-background:new 0 0 1920 111.41;" xml:space="preserve">
<style type="text/css">
	.st0{fill:#10052D;}
	.st1{opacity:0.5;clip-path:url(#SVGID_00000118366751981630132220000001569842913950900920_);}
	.st2{opacity:0.5;}
	.st3{clip-path:url(#SVGID_00000114067045332759559970000003022163136129896842_);}
	.st4{fill:#2B1B66;}
</style>
<rect class="st0" width="1920" height="111.41"/>
<g>
	<defs>
		<rect id="SVGID_1_" width="1920" height="111.41"/>
	</defs>
	<clipPath id="SVGID_00000154427279356960502370000013908210520634189724_">
		<use xlink:href="#SVGID_1_"  style="overflow:visible;"/>
	</clipPath>
	<g style="opacity:0.5;clip-path:url(#SVGID_00000154427279356960502370000013908210520634189724_);">
		<defs>
			
				<rect id="SVGID_00000081632471063669867880000015668308455781381513_" x="0" y="-159.89" class="st2" width="1920" height="271.3"/>
		</defs>
		<clipPath id="SVGID_00000134208291454454004320000004331981509048356736_">
			<use xlink:href="#SVGID_00000081632471063669867880000015668308455781381513_"  style="overflow:visible;"/>
		</clipPath>
		<g style="clip-path:url(#SVGID_00000134208291454454004320000004331981509048356736_);">
			<g>
				<g>
					<path class="st4" d="M1001.03-35.27h4.34v53.59c0,22.58,18.37,40.95,40.95,40.95c22.58,0,40.95-18.37,40.95-40.95v-53.59h4.34
						v53.59c0,24.97-20.31,45.28-45.28,45.28c-24.97,0-45.28-20.31-45.28-45.28V-35.27z"/>
				</g>
				<g>
					<circle class="st4" cx="1046.32" cy="-2.88" r="8.04"/>
					<path class="st4" d="M1046.32-13.08c5.63,0,10.21,4.58,10.21,10.21s-4.58,10.21-10.21,10.21c-5.63,0-10.21-4.58-10.21-10.21
						S1040.69-13.08,1046.32-13.08z M1046.32,3c3.24,0,5.87-2.63,5.87-5.87c0-3.24-2.63-5.87-5.87-5.87s-5.87,2.63-5.87,5.87
						C1040.44,0.36,1043.08,3,1046.32,3z"/>
				</g>
				<g>
					<path class="st4" d="M1038.64-32.36c-18.93,3.64-33.27,20.22-33.27,40.06h-4.34c0-22.24,16.27-40.78,37.6-44.47"/>
				</g>
			</g>
			<g>
				<g>
					<path class="st4" d="M1265.08-35.16h-4.34v53.59c0,22.58-18.37,40.95-40.95,40.95c-22.58,0-40.95-18.37-40.95-40.95v-53.59
						h-4.34v53.59c0,24.97,20.31,45.28,45.28,45.28c24.97,0,45.28-20.31,45.28-45.28V-35.16z"/>
				</g>
				<g>
					<circle class="st4" cx="1219.8" cy="-2.76" r="8.04"/>
					<path class="st4" d="M1230.01-2.76c0,5.63-4.58,10.21-10.21,10.21s-10.21-4.58-10.21-10.21s4.58-10.21,10.21-10.21
						S1230.01-8.39,1230.01-2.76z M1225.67-2.76c0-3.24-2.63-5.87-5.87-5.87s-5.87,2.63-5.87,5.87c0,3.24,2.63,5.87,5.87,5.87
						S1225.67,0.47,1225.67-2.76z"/>
				</g>
				<g>
					<path class="st4" d="M1227.48-32.25c18.93,3.64,33.27,20.22,33.27,40.06h4.34c0-22.24-16.27-40.78-37.61-44.47"/>
				</g>
			</g>
			<g>
				<g>
					<path class="st4" d="M1178.55,94.42h-4.34V40.83c0-22.58-18.37-40.95-40.95-40.95c-22.58,0-40.95,18.37-40.95,40.95v53.59
						h-4.34V40.83c0-24.97,20.31-45.28,45.28-45.28c24.97,0,45.28,20.31,45.28,45.28V94.42z"/>
				</g>
				<g>
					<path class="st4" d="M1135.37,129.18h-4.01l0-0.04c-20.3-0.79-37.92-14.49-43.22-33.87l-0.08-0.28v-0.57h3.2l1.06-0.29
						c4.76,17.4,20.5,29.75,38.71,30.66v-22.13l4.34-0.03l0.27,22.16c18.49-0.9,34.24-13.35,38.72-30.91l4.2,1.07
						c-2.46,9.61-8.23,18.31-16.27,24.5c-7.78,5.99-17.05,9.32-26.92,9.69V129.18z"/>
				</g>
				<g>
					<path class="st4" d="M1092.24,94.63l-4.18-1.15c5.44-19.7,23.97-33.45,45.06-33.45v4.34
						C1113.98,64.36,1097.17,76.81,1092.24,94.63z"/>
				</g>
				<g>
					<circle class="st4" cx="1133.27" cy="62.02" r="8.04"/>
					<path class="st4" d="M1133.27,72.23c-5.63,0-10.21-4.58-10.21-10.21s4.58-10.21,10.21-10.21s10.21,4.58,10.21,10.21
						S1138.9,72.23,1133.27,72.23z M1133.27,56.15c-3.24,0-5.87,2.63-5.87,5.87c0,3.24,2.63,5.87,5.87,5.87s5.87-2.63,5.87-5.87
						C1139.14,58.78,1136.51,56.15,1133.27,56.15z"/>
				</g>
				<g>
					<path class="st4" d="M1140.95,91.51c18.93-3.64,33.27-20.22,33.27-40.06h4.34c0,22.24-16.27,40.78-37.6,44.47"/>
				</g>
				<g>
					<path class="st4" d="M1133.13,104.46c-5.63,0-10.21-4.58-10.21-10.21c0-5.63,4.58-10.21,10.21-10.21
						c5.63,0,10.21,4.58,10.21,10.21C1143.34,99.88,1138.76,104.46,1133.13,104.46z M1133.13,88.38c-3.24,0-5.87,2.63-5.87,5.87
						c0,3.24,2.63,5.87,5.87,5.87c3.24,0,5.87-2.63,5.87-5.87C1139,91.01,1136.36,88.38,1133.13,88.38z"/>
				</g>
			</g>
			<g>
				<g>
					<path class="st4" d="M1092.01,93.71h-4.34v53.59c0,22.58-18.37,40.95-40.95,40.95s-40.95-18.37-40.95-40.95V93.71h-4.34v53.59
						c0,24.97,20.31,45.28,45.28,45.28c24.97,0,45.28-20.31,45.28-45.28V93.71z"/>
				</g>
				<g>
					<path class="st4" d="M1048.82,58.94h-4.01l0,0.04c-20.3,0.79-37.92,14.49-43.22,33.87l-0.08,0.28v0.57h3.2l1.06,0.29
						c4.76-17.4,20.5-29.75,38.71-30.66v22.13l4.34,0.03l0.27-22.16c18.49,0.9,34.24,13.35,38.72,30.91l4.2-1.07
						c-2.46-9.61-8.23-18.31-16.27-24.5c-7.78-5.99-17.05-9.32-26.92-9.69V58.94z"/>
				</g>
				<g>
					<path class="st4" d="M1005.7,93.49l-4.18,1.15c5.44,19.7,23.97,33.45,45.06,33.45v-4.34
						C1027.43,123.77,1010.62,111.32,1005.7,93.49z"/>
				</g>
				<g>
					<path class="st4" d="M1054.4,96.62c18.93,3.64,33.27,20.22,33.27,40.06h4.34c0-22.24-16.27-40.78-37.61-44.47"/>
				</g>
				<g>
					<path class="st4" d="M1056.79,93.87c0,5.63-4.58,10.21-10.21,10.21c-5.63,0-10.21-4.58-10.21-10.21s4.58-10.21,10.21-10.21
						C1052.21,83.66,1056.79,88.24,1056.79,93.87z M1052.45,93.87c0-3.24-2.63-5.87-5.87-5.87c-3.24,0-5.87,2.63-5.87,5.87
						s2.63,5.87,5.87,5.87C1049.82,99.75,1052.45,97.11,1052.45,93.87z"/>
				</g>
			</g>
			<g>
				<g>
					<path class="st4" d="M1264.94,93.64h-4.34v53.59c0,22.58-18.37,40.95-40.95,40.95s-40.95-18.37-40.95-40.95V93.64h-4.34v53.59
						c0,24.97,20.31,45.28,45.28,45.28c24.97,0,45.28-20.31,45.28-45.28V93.64z"/>
				</g>
				<g>
					<path class="st4" d="M1221.75,58.88h-4.01l0,0.04c-20.3,0.79-37.92,14.49-43.22,33.87l-0.08,0.28v0.57h3.2l1.06,0.29
						c4.76-17.4,20.5-29.75,38.71-30.66V85.4l4.34,0.03l0.27-22.16c18.49,0.9,34.24,13.35,38.72,30.91l4.2-1.07
						c-2.46-9.61-8.23-18.31-16.27-24.5c-7.78-5.99-17.05-9.32-26.92-9.69V58.88z"/>
				</g>
				<g>
					<path class="st4" d="M1178.63,93.43l-4.18,1.15c5.44,19.7,23.97,33.45,45.06,33.45v-4.34
						C1200.36,123.7,1183.55,111.25,1178.63,93.43z"/>
				</g>
				<g>
					<path class="st4" d="M1227.33,96.55c18.93,3.64,33.27,20.22,33.27,40.06h4.34c0-22.24-16.27-40.78-37.61-44.47"/>
				</g>
				<g>
					<path class="st4" d="M1229.72,93.81c0,5.63-4.58,10.21-10.21,10.21c-5.63,0-10.21-4.58-10.21-10.21s4.58-10.21,10.21-10.21
						C1225.14,83.6,1229.72,88.18,1229.72,93.81z M1225.38,93.81c0-3.24-2.63-5.87-5.87-5.87c-3.24,0-5.87,2.63-5.87,5.87
						s2.63,5.87,5.87,5.87C1222.75,99.68,1225.38,97.05,1225.38,93.81z"/>
				</g>
			</g>
			<g>
				<g>
					<path class="st4" d="M1307.75,1.11h-4.01l0-0.04c-20.3-0.79-37.92-14.49-43.22-33.87l-0.08-0.28v-0.57h3.2l1.06-0.29
						c4.76,17.4,20.5,29.75,38.71,30.66v-22.13l4.34-0.03l0.27,22.16c18.49-0.9,34.24-13.35,38.72-30.91l4.2,1.07
						c-2.46,9.61-8.23,18.31-16.27,24.5c-7.78,5.99-17.05,9.32-26.92,9.69V1.11z"/>
				</g>
			</g>
			<g>
				<g>
					<path class="st4" d="M1259.96,95.72h4.34V42.13c0-22.58,18.37-40.95,40.95-40.95s40.95,18.37,40.95,40.95v53.59h4.34V42.13
						c0-24.97-20.31-45.28-45.28-45.28c-24.97,0-45.28,20.31-45.28,45.28V95.72z"/>
				</g>
				<g>
					<path class="st4" d="M1303.15,130.48h4.01l0-0.04c20.3-0.79,37.92-14.49,43.22-33.87l0.08-0.28v-0.57h-3.2l-1.06-0.29
						c-4.76,17.4-20.5,29.75-38.71,30.66v-22.13l-4.34-0.03l-0.27,22.16c-18.49-0.9-34.24-13.35-38.72-30.91l-4.2,1.07
						c2.46,9.61,8.23,18.31,16.27,24.5c7.78,5.99,17.05,9.32,26.92,9.69V130.48z"/>
				</g>
				<g>
					<path class="st4" d="M1346.27,95.93l4.18-1.15c-5.44-19.7-23.97-33.45-45.06-33.45v4.34
						C1324.54,65.66,1341.35,78.11,1346.27,95.93z"/>
				</g>
				<g>
					<circle class="st4" cx="1305.25" cy="63.33" r="8.04"/>
					<path class="st4" d="M1295.04,63.33c0-5.63,4.58-10.21,10.21-10.21s10.21,4.58,10.21,10.21c0,5.63-4.58,10.21-10.21,10.21
						S1295.04,68.96,1295.04,63.33z M1299.37,63.33c0,3.24,2.63,5.87,5.87,5.87s5.87-2.63,5.87-5.87c0-3.24-2.63-5.87-5.87-5.87
						S1299.37,60.09,1299.37,63.33z"/>
				</g>
				<g>
					<path class="st4" d="M1297.57,92.81c-18.93-3.64-33.27-20.22-33.27-40.06h-4.34c0,22.24,16.27,40.78,37.61,44.47"/>
				</g>
				<g>
					<path class="st4" d="M1295.18,95.56c0-5.63,4.58-10.21,10.21-10.21c5.63,0,10.21,4.58,10.21,10.21s-4.58,10.21-10.21,10.21
						C1299.76,105.77,1295.18,101.19,1295.18,95.56z M1299.52,95.56c0,3.24,2.63,5.87,5.87,5.87c3.24,0,5.87-2.63,5.87-5.87
						s-2.63-5.87-5.87-5.87C1302.15,89.68,1299.52,92.32,1299.52,95.56z"/>
				</g>
			</g>
			<g>
				<g>
					<path class="st4" d="M1345.75-35h4.34v53.59c0,22.58,18.37,40.95,40.95,40.95c22.58,0,40.95-18.37,40.95-40.95V-35h4.34v53.59
						c0,24.97-20.31,45.28-45.28,45.28c-24.97,0-45.28-20.31-45.28-45.28V-35z"/>
				</g>
				<g>
					<circle class="st4" cx="1391.04" cy="-2.6" r="8.04"/>
					<path class="st4" d="M1391.04-12.81c5.63,0,10.21,4.58,10.21,10.21s-4.58,10.21-10.21,10.21s-10.21-4.58-10.21-10.21
						S1385.41-12.81,1391.04-12.81z M1391.04,3.27c3.24,0,5.87-2.63,5.87-5.87c0-3.24-2.63-5.87-5.87-5.87s-5.87,2.63-5.87,5.87
						C1385.16,0.63,1387.8,3.27,1391.04,3.27z"/>
				</g>
				<g>
					<path class="st4" d="M1383.36-32.09c-18.93,3.64-33.27,20.22-33.27,40.06h-4.34c0-22.24,16.27-40.78,37.6-44.47"/>
				</g>
			</g>
			<g>
				<g>
					<path class="st4" d="M1475.49,0.08h4.01l0-0.04c20.3-0.79,37.92-14.49,43.22-33.87l0.08-0.28v-0.57h-3.2l-1.06-0.29
						c-4.76,17.4-20.5,29.75-38.71,30.66v-22.13l-4.34-0.03l-0.27,22.16c-18.49-0.9-34.24-13.35-38.72-30.91l-4.2,1.07
						c2.46,9.61,8.23,18.31,16.27,24.5c7.78,5.99,17.05,9.32,26.92,9.69V0.08z"/>
				</g>
			</g>
			<g>
				<g>
					<path class="st4" d="M1609.8-34.89h-4.34V18.7c0,22.58-18.37,40.95-40.95,40.95c-22.58,0-40.95-18.37-40.95-40.95v-53.59h-4.34
						V18.7c0,24.97,20.31,45.28,45.28,45.28c24.97,0,45.28-20.31,45.28-45.28V-34.89z"/>
				</g>
				<g>
					<circle class="st4" cx="1564.52" cy="-2.49" r="8.04"/>
					<path class="st4" d="M1574.73-2.49c0,5.63-4.58,10.21-10.21,10.21s-10.21-4.58-10.21-10.21s4.58-10.21,10.21-10.21
						S1574.73-8.12,1574.73-2.49z M1570.39-2.49c0-3.24-2.63-5.87-5.87-5.87s-5.87,2.63-5.87,5.87c0,3.24,2.63,5.87,5.87,5.87
						S1570.39,0.75,1570.39-2.49z"/>
				</g>
				<g>
					<path class="st4" d="M1572.2-31.98c18.93,3.64,33.27,20.22,33.27,40.06h4.34c0-22.24-16.27-40.78-37.6-44.47"/>
				</g>
			</g>
			<g>
				<g>
					<path class="st4" d="M1523.27,94.69h-4.34V41.1c0-22.58-18.37-40.95-40.95-40.95c-22.58,0-40.95,18.37-40.95,40.95v53.59h-4.34
						V41.1c0-24.97,20.31-45.28,45.28-45.28c24.97,0,45.28,20.31,45.28,45.28V94.69z"/>
				</g>
				<g>
					<path class="st4" d="M1480.09,129.45h-4.01l0-0.04c-20.3-0.79-37.92-14.49-43.22-33.87l-0.08-0.28v-0.57h3.2l1.06-0.29
						c4.76,17.4,20.5,29.75,38.71,30.66v-22.13l4.34-0.03l0.27,22.16c18.49-0.9,34.24-13.35,38.72-30.91l4.2,1.07
						c-2.46,9.61-8.23,18.31-16.27,24.5c-7.78,5.99-17.05,9.32-26.92,9.69V129.45z"/>
				</g>
				<g>
					<path class="st4" d="M1436.96,94.9l-4.18-1.15c5.44-19.7,23.97-33.45,45.06-33.45v4.34
						C1458.7,64.63,1441.89,77.08,1436.96,94.9z"/>
				</g>
				<g>
					<circle class="st4" cx="1477.99" cy="62.29" r="8.04"/>
					<path class="st4" d="M1477.99,72.5c-5.63,0-10.21-4.58-10.21-10.21s4.58-10.21,10.21-10.21s10.21,4.58,10.21,10.21
						S1483.62,72.5,1477.99,72.5z M1477.99,56.42c-3.24,0-5.87,2.63-5.87,5.87c0,3.24,2.63,5.87,5.87,5.87s5.87-2.63,5.87-5.87
						C1483.86,59.06,1481.23,56.42,1477.99,56.42z"/>
				</g>
				<g>
					<path class="st4" d="M1485.67,91.78c18.93-3.64,33.27-20.22,33.27-40.06h4.34c0,22.24-16.27,40.78-37.6,44.47"/>
				</g>
				<g>
					<path class="st4" d="M1477.85,104.73c-5.63,0-10.21-4.58-10.21-10.21c0-5.63,4.58-10.21,10.21-10.21s10.21,4.58,10.21,10.21
						C1488.06,100.15,1483.47,104.73,1477.85,104.73z M1477.85,88.65c-3.24,0-5.87,2.63-5.87,5.87c0,3.24,2.63,5.87,5.87,5.87
						c3.24,0,5.87-2.63,5.87-5.87C1483.72,91.28,1481.08,88.65,1477.85,88.65z"/>
				</g>
			</g>
			<g>
				<g>
					<path class="st4" d="M1436.73,93.98h-4.34v53.59c0,22.58-18.37,40.95-40.95,40.95c-22.58,0-40.95-18.37-40.95-40.95V93.98
						h-4.34v53.59c0,24.97,20.31,45.28,45.28,45.28c24.97,0,45.28-20.31,45.28-45.28V93.98z"/>
				</g>
				<g>
					<path class="st4" d="M1393.54,59.22h-4.01l0,0.04c-20.3,0.79-37.92,14.49-43.22,33.87l-0.08,0.28v0.57h3.2l1.06,0.29
						c4.76-17.4,20.5-29.75,38.71-30.66v22.13l4.34,0.03l0.27-22.16c18.49,0.9,34.24,13.35,38.72,30.91l4.2-1.07
						c-2.46-9.61-8.23-18.31-16.27-24.5c-7.78-5.99-17.05-9.32-26.92-9.69V59.22z"/>
				</g>
				<g>
					<path class="st4" d="M1350.42,93.77l-4.18,1.15c5.44,19.7,23.97,33.45,45.06,33.45v-4.34
						C1372.15,124.04,1355.34,111.59,1350.42,93.77z"/>
				</g>
				<g>
					<path class="st4" d="M1399.12,96.89c18.93,3.64,33.27,20.22,33.27,40.06h4.34c0-22.24-16.27-40.78-37.6-44.47"/>
				</g>
				<g>
					<path class="st4" d="M1401.51,94.14c0,5.63-4.58,10.21-10.21,10.21c-5.63,0-10.21-4.58-10.21-10.21s4.58-10.21,10.21-10.21
						C1396.93,83.93,1401.51,88.51,1401.51,94.14z M1397.17,94.14c0-3.24-2.63-5.87-5.87-5.87c-3.24,0-5.87,2.63-5.87,5.87
						s2.63,5.87,5.87,5.87C1394.54,100.02,1397.17,97.38,1397.17,94.14z"/>
				</g>
			</g>
			<g>
				<g>
					<path class="st4" d="M1609.66,93.91h-4.34v53.59c0,22.58-18.37,40.95-40.95,40.95c-22.58,0-40.95-18.37-40.95-40.95V93.91
						h-4.34v53.59c0,24.97,20.31,45.28,45.28,45.28c24.97,0,45.28-20.31,45.28-45.28V93.91z"/>
				</g>
				<g>
					<path class="st4" d="M1566.47,59.15h-4.01l0,0.04c-20.3,0.79-37.92,14.49-43.22,33.87l-0.08,0.28v0.57h3.2l1.06,0.29
						c4.76-17.4,20.5-29.75,38.71-30.66v22.13l4.34,0.03l0.27-22.16c18.49,0.9,34.24,13.35,38.72,30.91l4.2-1.07
						c-2.46-9.61-8.23-18.31-16.27-24.5c-7.78-5.99-17.05-9.32-26.92-9.69V59.15z"/>
				</g>
				<g>
					<path class="st4" d="M1523.35,93.7l-4.18,1.15c5.44,19.7,23.97,33.45,45.06,33.45v-4.34
						C1545.08,123.97,1528.27,111.53,1523.35,93.7z"/>
				</g>
				<g>
					<path class="st4" d="M1572.05,96.82c18.93,3.64,33.27,20.22,33.27,40.06h4.34c0-22.24-16.27-40.78-37.6-44.47"/>
				</g>
				<g>
					<path class="st4" d="M1574.44,94.08c0,5.63-4.58,10.21-10.21,10.21c-5.63,0-10.21-4.58-10.21-10.21s4.58-10.21,10.21-10.21
						C1569.86,83.87,1574.44,88.45,1574.44,94.08z M1570.1,94.08c0-3.24-2.63-5.87-5.87-5.87c-3.24,0-5.87,2.63-5.87,5.87
						s2.63,5.87,5.87,5.87C1567.47,99.95,1570.1,97.32,1570.1,94.08z"/>
				</g>
			</g>
			<g>
				<g>
					<path class="st4" d="M1652.47,1.38h-4.01l0-0.04c-20.3-0.79-37.92-14.49-43.22-33.87l-0.08-0.28v-0.57h3.2l1.06-0.29
						c4.76,17.4,20.5,29.75,38.71,30.66v-22.13l4.34-0.03L1652.74-3c18.49-0.9,34.24-13.35,38.72-30.91l4.2,1.07
						c-2.46,9.61-8.23,18.31-16.27,24.5c-7.78,5.99-17.05,9.32-26.92,9.69V1.38z"/>
				</g>
			</g>
			<g>
				<g>
					<path class="st4" d="M1604.68,95.99h4.34V42.41c0-22.58,18.37-40.95,40.95-40.95c22.58,0,40.95,18.37,40.95,40.95v53.59h4.34
						V42.41c0-24.97-20.31-45.28-45.28-45.28c-24.97,0-45.28,20.31-45.28,45.28V95.99z"/>
				</g>
				<g>
					<path class="st4" d="M1647.87,130.76h4.01l0-0.04c20.3-0.79,37.92-14.49,43.22-33.87l0.08-0.28v-0.57h-3.2l-1.06-0.29
						c-4.76,17.4-20.5,29.75-38.71,30.66v-22.13l-4.34-0.03l-0.27,22.16c-18.49-0.9-34.24-13.35-38.72-30.91l-4.2,1.07
						c2.46,9.61,8.23,18.31,16.27,24.5c7.78,5.99,17.05,9.32,26.92,9.69V130.76z"/>
				</g>
				<g>
					<path class="st4" d="M1690.99,96.21l4.18-1.15c-5.44-19.7-23.97-33.45-45.06-33.45v4.34
						C1669.26,65.93,1686.07,78.38,1690.99,96.21z"/>
				</g>
				<g>
					<circle class="st4" cx="1649.97" cy="63.6" r="8.04"/>
					<path class="st4" d="M1639.76,63.6c0-5.63,4.58-10.21,10.21-10.21s10.21,4.58,10.21,10.21c0,5.63-4.58,10.21-10.21,10.21
						S1639.76,69.23,1639.76,63.6z M1644.09,63.6c0,3.24,2.63,5.87,5.87,5.87s5.87-2.63,5.87-5.87c0-3.24-2.63-5.87-5.87-5.87
						S1644.09,60.36,1644.09,63.6z"/>
				</g>
				<g>
					<path class="st4" d="M1642.29,93.08c-18.93-3.64-33.27-20.22-33.27-40.06h-4.34c0,22.24,16.27,40.78,37.6,44.47"/>
				</g>
				<g>
					<path class="st4" d="M1639.9,95.83c0-5.63,4.58-10.21,10.21-10.21s10.21,4.58,10.21,10.21s-4.58,10.21-10.21,10.21
						S1639.9,101.46,1639.9,95.83z M1644.24,95.83c0,3.24,2.63,5.87,5.87,5.87c3.24,0,5.87-2.63,5.87-5.87s-2.63-5.87-5.87-5.87
						C1646.87,89.95,1644.24,92.59,1644.24,95.83z"/>
				</g>
			</g>
			<g>
				<g>
					<path class="st4" d="M1690.86-36.19h4.34V17.4c0,22.58,18.37,40.95,40.95,40.95c22.58,0,40.95-18.37,40.95-40.95v-53.59h4.34
						V17.4c0,24.97-20.31,45.28-45.28,45.28c-24.97,0-45.28-20.31-45.28-45.28V-36.19z"/>
				</g>
				<g>
					<circle class="st4" cx="1736.15" cy="-3.79" r="8.04"/>
					<path class="st4" d="M1736.15-14c5.63,0,10.21,4.58,10.21,10.21s-4.58,10.21-10.21,10.21c-5.63,0-10.21-4.58-10.21-10.21
						S1730.52-14,1736.15-14z M1736.15,2.08c3.24,0,5.87-2.63,5.87-5.87c0-3.24-2.63-5.87-5.87-5.87s-5.87,2.63-5.87,5.87
						C1730.27-0.55,1732.91,2.08,1736.15,2.08z"/>
				</g>
				<g>
					<path class="st4" d="M1728.47-33.28c-18.93,3.64-33.27,20.22-33.27,40.06h-4.34c0-22.24,16.27-40.78,37.6-44.47"/>
				</g>
			</g>
			<g>
				<g>
					<path class="st4" d="M1954.91-36.08h-4.34v53.59c0,22.58-18.37,40.95-40.95,40.95c-22.58,0-40.95-18.37-40.95-40.95v-53.59
						h-4.34v53.59c0,24.97,20.31,45.28,45.28,45.28c24.97,0,45.28-20.31,45.28-45.28V-36.08z"/>
				</g>
				<g>
					<circle class="st4" cx="1909.63" cy="-3.68" r="8.04"/>
					<path class="st4" d="M1919.84-3.68c0,5.63-4.58,10.21-10.21,10.21s-10.21-4.58-10.21-10.21s4.58-10.21,10.21-10.21
						S1919.84-9.31,1919.84-3.68z M1915.5-3.68c0-3.24-2.63-5.87-5.87-5.87s-5.87,2.63-5.87,5.87c0,3.24,2.63,5.87,5.87,5.87
						S1915.5-0.44,1915.5-3.68z"/>
				</g>
				<g>
					<path class="st4" d="M1917.31-33.17c18.93,3.64,33.27,20.22,33.27,40.06h4.34c0-22.24-16.27-40.78-37.61-44.47"/>
				</g>
			</g>
			<g>
				<g>
					<path class="st4" d="M1868.38,93.5h-4.34V39.91c0-22.58-18.37-40.95-40.95-40.95c-22.58,0-40.95,18.37-40.95,40.95V93.5h-4.34
						V39.91c0-24.97,20.31-45.28,45.28-45.28c24.97,0,45.28,20.31,45.28,45.28V93.5z"/>
				</g>
				<g>
					<path class="st4" d="M1825.2,128.26h-4.01l0-0.04c-20.3-0.79-37.92-14.49-43.22-33.87l-0.08-0.28V93.5h3.2l1.06-0.29
						c4.76,17.4,20.5,29.75,38.71,30.66v-22.13l4.34-0.03l0.27,22.16c18.49-0.9,34.24-13.35,38.72-30.91l4.2,1.07
						c-2.46,9.61-8.23,18.31-16.27,24.5c-7.78,5.99-17.05,9.32-26.92,9.69V128.26z"/>
				</g>
				<g>
					<path class="st4" d="M1782.07,93.71l-4.18-1.15c5.44-19.7,23.97-33.45,45.06-33.45v4.34
						C1803.81,63.44,1787,75.89,1782.07,93.71z"/>
				</g>
				<g>
					<circle class="st4" cx="1823.1" cy="61.1" r="8.04"/>
					<path class="st4" d="M1823.1,71.31c-5.63,0-10.21-4.58-10.21-10.21s4.58-10.21,10.21-10.21s10.21,4.58,10.21,10.21
						S1828.73,71.31,1823.1,71.31z M1823.1,55.23c-3.24,0-5.87,2.63-5.87,5.87c0,3.24,2.63,5.87,5.87,5.87s5.87-2.63,5.87-5.87
						C1828.97,57.87,1826.34,55.23,1823.1,55.23z"/>
				</g>
				<g>
					<path class="st4" d="M1830.78,90.59c18.93-3.64,33.27-20.22,33.27-40.06h4.34c0,22.24-16.27,40.78-37.6,44.47"/>
				</g>
				<g>
					<path class="st4" d="M1822.96,103.54c-5.63,0-10.21-4.58-10.21-10.21s4.58-10.21,10.21-10.21c5.63,0,10.21,4.58,10.21,10.21
						S1828.59,103.54,1822.96,103.54z M1822.96,87.46c-3.24,0-5.87,2.63-5.87,5.87s2.63,5.87,5.87,5.87c3.24,0,5.87-2.63,5.87-5.87
						S1826.19,87.46,1822.96,87.46z"/>
				</g>
			</g>
			<g>
				<g>
					<path class="st4" d="M1781.84,92.79h-4.34v53.59c0,22.58-18.37,40.95-40.95,40.95s-40.95-18.37-40.95-40.95V92.79h-4.34v53.59
						c0,24.97,20.31,45.28,45.28,45.28c24.97,0,45.28-20.31,45.28-45.28V92.79z"/>
				</g>
				<g>
					<path class="st4" d="M1738.65,58.03h-4.01l0,0.04c-20.3,0.79-37.92,14.49-43.22,33.87l-0.08,0.28v0.57h3.2l1.06,0.29
						c4.76-17.4,20.5-29.75,38.71-30.66v22.13l4.34,0.03l0.27-22.16c18.49,0.9,34.24,13.35,38.72,30.91l4.2-1.07
						c-2.46-9.61-8.23-18.31-16.27-24.5c-7.78-5.99-17.05-9.32-26.92-9.69V58.03z"/>
				</g>
				<g>
					<path class="st4" d="M1695.53,92.58l-4.18,1.15c5.44,19.7,23.97,33.45,45.06,33.45v-4.34
						C1717.26,122.85,1700.45,110.4,1695.53,92.58z"/>
				</g>
				<g>
					<path class="st4" d="M1744.23,95.7c18.93,3.64,33.27,20.22,33.27,40.06h4.34c0-22.24-16.27-40.78-37.61-44.47"/>
				</g>
				<g>
					<path class="st4" d="M1746.62,92.95c0,5.63-4.58,10.21-10.21,10.21c-5.63,0-10.21-4.58-10.21-10.21s4.58-10.21,10.21-10.21
						C1742.04,82.74,1746.62,87.32,1746.62,92.95z M1742.28,92.95c0-3.24-2.63-5.87-5.87-5.87c-3.24,0-5.87,2.63-5.87,5.87
						s2.63,5.87,5.87,5.87C1739.65,98.83,1742.28,96.19,1742.28,92.95z"/>
				</g>
			</g>
			<g>
				<g>
					<path class="st4" d="M1954.77,92.72h-4.34v53.59c0,22.58-18.37,40.95-40.95,40.95s-40.95-18.37-40.95-40.95V92.73h-4.34v53.59
						c0,24.97,20.31,45.28,45.28,45.28c24.97,0,45.28-20.31,45.28-45.28V92.72z"/>
				</g>
				<g>
					<path class="st4" d="M1911.58,57.96h-4.01l0,0.04c-20.3,0.79-37.92,14.49-43.22,33.87l-0.08,0.28v0.57h3.2l1.06,0.29
						c4.76-17.4,20.5-29.75,38.71-30.66v22.13l4.34,0.03l0.27-22.16c18.49,0.9,34.24,13.35,38.72,30.91l4.2-1.07
						c-2.46-9.61-8.23-18.31-16.27-24.5c-7.78-5.99-17.05-9.32-26.92-9.69V57.96z"/>
				</g>
				<g>
					<path class="st4" d="M1868.46,92.51l-4.18,1.15c5.44,19.7,23.97,33.45,45.06,33.45v-4.34
						C1890.19,122.79,1873.38,110.34,1868.46,92.51z"/>
				</g>
				<g>
					<path class="st4" d="M1917.16,95.63c18.93,3.64,33.27,20.22,33.27,40.06h4.34c0-22.24-16.27-40.78-37.61-44.47"/>
				</g>
				<g>
					<path class="st4" d="M1919.55,92.89c0,5.63-4.58,10.21-10.21,10.21c-5.63,0-10.21-4.58-10.21-10.21s4.58-10.21,10.21-10.21
						C1914.97,82.68,1919.55,87.26,1919.55,92.89z M1915.21,92.89c0-3.24-2.63-5.87-5.87-5.87c-3.24,0-5.87,2.63-5.87,5.87
						s2.63,5.87,5.87,5.87C1912.58,98.76,1915.21,96.13,1915.21,92.89z"/>
				</g>
			</g>
			<g>
				<g>
					<path class="st4" d="M962.27,0.61h-4.01l0-0.04c-20.3-0.79-37.92-14.49-43.22-33.87l-0.08-0.28v-0.57h3.2l1.06-0.29
						c4.76,17.4,20.5,29.75,38.71,30.66v-22.13l4.34-0.03l0.27,22.16c18.49-0.9,34.24-13.35,38.72-30.91l4.2,1.07
						c-2.46,9.61-8.23,18.31-16.27,24.5c-7.78,5.99-17.05,9.32-26.92,9.69V0.61z"/>
				</g>
			</g>
			<g>
				<g>
					<path class="st4" d="M914.49,95.22h4.34V41.63c0-22.58,18.37-40.95,40.95-40.95s40.95,18.37,40.95,40.95v53.59h4.34V41.63
						c0-24.97-20.31-45.28-45.28-45.28c-24.97,0-45.28,20.31-45.28,45.28V95.22z"/>
				</g>
				<g>
					<path class="st4" d="M957.68,129.98h4.01l0-0.04c20.3-0.79,37.92-14.49,43.22-33.87l0.08-0.28v-0.57h-3.2l-1.06-0.29
						c-4.76,17.4-20.5,29.75-38.71,30.66v-22.13l-4.34-0.03l-0.27,22.16c-18.49-0.9-34.24-13.35-38.72-30.91l-4.2,1.07
						c2.46,9.61,8.23,18.31,16.27,24.5c7.78,5.99,17.05,9.32,26.92,9.69V129.98z"/>
				</g>
				<g>
					<path class="st4" d="M1000.8,95.43l4.18-1.15c-5.44-19.7-23.97-33.45-45.06-33.45v4.34C979.07,65.16,995.88,77.61,1000.8,95.43
						z"/>
				</g>
				<g>
					<circle class="st4" cx="959.77" cy="62.83" r="8.04"/>
					<path class="st4" d="M949.56,62.83c0-5.63,4.58-10.21,10.21-10.21s10.21,4.58,10.21,10.21s-4.58,10.21-10.21,10.21
						S949.56,68.46,949.56,62.83z M953.9,62.83c0,3.24,2.63,5.87,5.87,5.87s5.87-2.63,5.87-5.87c0-3.24-2.63-5.87-5.87-5.87
						S953.9,59.59,953.9,62.83z"/>
				</g>
				<g>
					<path class="st4" d="M952.1,92.31c-18.93-3.64-33.27-20.22-33.27-40.06h-4.34c0,22.24,16.27,40.78,37.6,44.47"/>
				</g>
				<g>
					<path class="st4" d="M949.71,95.06c0-5.63,4.58-10.21,10.21-10.21c5.63,0,10.21,4.58,10.21,10.21s-4.58,10.21-10.21,10.21
						C954.29,105.27,949.71,100.69,949.71,95.06z M954.04,95.06c0,3.24,2.63,5.87,5.87,5.87c3.24,0,5.87-2.63,5.87-5.87
						s-2.63-5.87-5.87-5.87C956.68,89.18,954.04,91.82,954.04,95.06z"/>
				</g>
			</g>
			<g>
				<g>
					<path class="st4" d="M918.97-33.75h-4.34v53.59c0,22.58-18.37,40.95-40.95,40.95s-40.95-18.37-40.95-40.95v-53.59h-4.34v53.59
						c0,24.97,20.31,45.28,45.28,45.28c24.97,0,45.28-20.31,45.28-45.28V-33.75z"/>
				</g>
				<g>
					<path class="st4" d="M832.66-33.96l-4.18,1.15c5.44,19.7,23.97,33.45,45.06,33.45v-4.34C854.39-3.69,837.58-16.14,832.66-33.96
						z"/>
				</g>
				<g>
					<circle class="st4" cx="873.68" cy="-1.35" r="8.04"/>
					<path class="st4" d="M883.89-1.35c0,5.63-4.58,10.21-10.21,10.21s-10.21-4.58-10.21-10.21s4.58-10.21,10.21-10.21
						S883.89-6.98,883.89-1.35z M879.56-1.35c0-3.24-2.63-5.87-5.87-5.87s-5.87,2.63-5.87,5.87c0,3.24,2.63,5.87,5.87,5.87
						S879.56,1.89,879.56-1.35z"/>
				</g>
				<g>
					<path class="st4" d="M881.36-30.84c18.93,3.64,33.27,20.22,33.27,40.06h4.34c0-22.24-16.27-40.78-37.6-44.47"/>
				</g>
			</g>
			<g>
				<g>
					<path class="st4" d="M789.23,1.33h-4.01l0-0.04C764.91,0.51,747.3-13.2,742-32.58l-0.08-0.28v-0.57h3.2l1.06-0.29
						c4.76,17.4,20.5,29.75,38.71,30.66v-22.13l4.34-0.03l0.27,22.16c18.49-0.9,34.24-13.35,38.72-30.91l4.2,1.07
						c-2.46,9.61-8.23,18.31-16.27,24.5c-7.78,5.99-17.05,9.32-26.92,9.69V1.33z"/>
				</g>
			</g>
			<g>
				<g>
					<path class="st4" d="M654.92-33.64h4.34v53.59c0,22.58,18.37,40.95,40.95,40.95s40.95-18.37,40.95-40.95v-53.59h4.34v53.59
						c0,24.97-20.31,45.28-45.28,45.28c-24.97,0-45.28-20.31-45.28-45.28V-33.64z"/>
				</g>
				<g>
					<path class="st4" d="M741.22-33.85l4.18,1.15C739.96-13,721.43,0.76,700.34,0.76v-4.34C719.49-3.58,736.3-16.02,741.22-33.85z"
						/>
				</g>
				<g>
					<circle class="st4" cx="700.2" cy="-1.24" r="8.04"/>
					<path class="st4" d="M700.2-11.45c5.63,0,10.21,4.58,10.21,10.21S705.83,8.97,700.2,8.97c-5.63,0-10.21-4.58-10.21-10.21
						S694.57-11.45,700.2-11.45z M700.2,4.63c3.24,0,5.87-2.63,5.87-5.87c0-3.24-2.63-5.87-5.87-5.87s-5.87,2.63-5.87,5.87
						C694.33,2,696.96,4.63,700.2,4.63z"/>
				</g>
				<g>
					<path class="st4" d="M692.52-30.73c-18.93,3.64-33.27,20.22-33.27,40.06h-4.34c0-22.24,16.27-40.78,37.6-44.47"/>
				</g>
			</g>
			<g>
				<g>
					<path class="st4" d="M741.45,95.94h4.34V42.35c0-22.58,18.37-40.95,40.95-40.95s40.95,18.37,40.95,40.95v53.59h4.34V42.35
						c0-24.97-20.31-45.28-45.28-45.28c-24.97,0-45.28,20.31-45.28,45.28V95.94z"/>
				</g>
				<g>
					<path class="st4" d="M784.63,130.7h4.01l0-0.04c20.3-0.79,37.92-14.49,43.22-33.87l0.08-0.28v-0.57h-3.2l-1.06-0.29
						c-4.76,17.4-20.5,29.75-38.71,30.66v-22.13l-4.34-0.03l-0.27,22.16c-18.49-0.9-34.24-13.35-38.72-30.91l-4.2,1.07
						c2.46,9.61,8.23,18.31,16.27,24.5c7.78,5.99,17.05,9.32,26.92,9.69V130.7z"/>
				</g>
				<g>
					<path class="st4" d="M827.76,96.15l4.18-1.15c-5.44-19.7-23.97-33.45-45.06-33.45v4.34C806.02,65.88,822.83,78.33,827.76,96.15
						z"/>
				</g>
				<g>
					<circle class="st4" cx="786.73" cy="63.55" r="8.04"/>
					<path class="st4" d="M776.52,63.55c0-5.63,4.58-10.21,10.21-10.21c5.63,0,10.21,4.58,10.21,10.21s-4.58,10.21-10.21,10.21
						C781.1,73.76,776.52,69.18,776.52,63.55z M780.86,63.55c0,3.24,2.63,5.87,5.87,5.87s5.87-2.63,5.87-5.87
						c0-3.24-2.63-5.87-5.87-5.87S780.86,60.31,780.86,63.55z"/>
				</g>
				<g>
					<path class="st4" d="M779.05,93.03c-18.93-3.64-33.27-20.22-33.27-40.06h-4.34c0,22.24,16.27,40.78,37.6,44.47"/>
				</g>
				<g>
					<path class="st4" d="M776.66,95.78c0-5.63,4.58-10.21,10.21-10.21c5.63,0,10.21,4.58,10.21,10.21s-4.58,10.21-10.21,10.21
						C781.24,105.98,776.66,101.4,776.66,95.78z M781,95.78c0,3.24,2.63,5.87,5.87,5.87c3.24,0,5.87-2.63,5.87-5.87
						s-2.63-5.87-5.87-5.87C783.64,89.9,781,92.54,781,95.78z"/>
				</g>
			</g>
			<g>
				<g>
					<path class="st4" d="M827.99,95.23h4.34v53.59c0,22.58,18.37,40.95,40.95,40.95s40.95-18.37,40.95-40.95V95.23h4.34v53.59
						c0,24.97-20.31,45.28-45.28,45.28c-24.97,0-45.28-20.31-45.28-45.28V95.23z"/>
				</g>
				<g>
					<path class="st4" d="M871.18,60.47h4.01l0,0.04c20.3,0.79,37.92,14.49,43.22,33.87l0.08,0.28v0.57h-3.2l-1.06,0.29
						c-4.76-17.4-20.5-29.75-38.71-30.66v22.13l-4.34,0.03l-0.27-22.16c-18.49,0.9-34.24,13.35-38.72,30.91l-4.2-1.07
						c2.46-9.61,8.23-18.31,16.27-24.5c7.78-5.99,17.05-9.32,26.92-9.69V60.47z"/>
				</g>
				<g>
					<path class="st4" d="M914.3,95.02l4.18,1.15c-5.44,19.7-23.97,33.45-45.06,33.45v-4.34
						C892.57,125.29,909.38,112.84,914.3,95.02z"/>
				</g>
				<g>
					<path class="st4" d="M865.6,98.14c-18.93,3.64-33.27,20.22-33.27,40.06h-4.34c0-22.24,16.27-40.78,37.6-44.47"/>
				</g>
				<g>
					<path class="st4" d="M873.42,85.19c5.63,0,10.21,4.58,10.21,10.21s-4.58,10.21-10.21,10.21c-5.63,0-10.21-4.58-10.21-10.21
						S867.79,85.19,873.42,85.19z M873.42,101.27c3.24,0,5.87-2.63,5.87-5.87s-2.63-5.87-5.87-5.87c-3.24,0-5.87,2.63-5.87,5.87
						S870.18,101.27,873.42,101.27z"/>
				</g>
			</g>
			<g>
				<g>
					<path class="st4" d="M655.06,95.17h4.34v53.59c0,22.58,18.37,40.95,40.95,40.95s40.95-18.37,40.95-40.95V95.17h4.34v53.59
						c0,24.97-20.31,45.28-45.28,45.28c-24.97,0-45.28-20.31-45.28-45.28V95.17z"/>
				</g>
				<g>
					<path class="st4" d="M698.25,60.4h4.01l0,0.04c20.3,0.79,37.92,14.49,43.22,33.87l0.08,0.28v0.57h-3.2l-1.06,0.29
						c-4.76-17.4-20.5-29.75-38.71-30.66v22.13l-4.34,0.03l-0.27-22.16c-18.49,0.9-34.24,13.35-38.72,30.91l-4.2-1.07
						c2.46-9.61,8.23-18.31,16.27-24.5c7.78-5.99,17.05-9.32,26.92-9.69V60.4z"/>
				</g>
				<g>
					<path class="st4" d="M741.37,94.95l4.18,1.15c-5.44,19.7-23.97,33.45-45.06,33.45v-4.34
						C719.64,125.23,736.45,112.78,741.37,94.95z"/>
				</g>
				<g>
					<path class="st4" d="M692.67,98.08c-18.93,3.64-33.27,20.22-33.27,40.06h-4.34c0-22.24,16.27-40.78,37.6-44.47"/>
				</g>
				<g>
					<path class="st4" d="M700.49,85.12c5.63,0,10.21,4.58,10.21,10.21c0,5.63-4.58,10.21-10.21,10.21
						c-5.63,0-10.21-4.58-10.21-10.21C690.28,89.7,694.86,85.12,700.49,85.12z M700.49,101.2c3.24,0,5.87-2.63,5.87-5.87
						c0-3.24-2.63-5.87-5.87-5.87c-3.24,0-5.87,2.63-5.87,5.87C694.62,98.57,697.25,101.2,700.49,101.2z"/>
				</g>
			</g>
			<g>
				<g>
					<path class="st4" d="M612.25,2.64h4.01l0-0.04c20.3-0.79,37.92-14.49,43.22-33.87l0.08-0.28v-0.57h-3.2l-1.06-0.29
						c-4.76,17.4-20.5,29.75-38.71,30.66v-22.13l-4.34-0.03l-0.27,22.16c-18.49-0.9-34.24-13.35-38.72-30.91l-4.2,1.07
						c2.46,9.61,8.23,18.31,16.27,24.5c7.78,5.99,17.05,9.32,26.92,9.69V2.64z"/>
				</g>
			</g>
			<g>
				<g>
					<path class="st4" d="M660.04,97.25h-4.34V43.66c0-22.58-18.37-40.95-40.95-40.95s-40.95,18.37-40.95,40.95v53.59h-4.34V43.66
						c0-24.97,20.31-45.28,45.28-45.28c24.97,0,45.28,20.31,45.28,45.28V97.25z"/>
				</g>
				<g>
					<path class="st4" d="M616.85,132.01h-4.01l0-0.04c-20.3-0.79-37.92-14.49-43.22-33.87l-0.08-0.28v-0.57h3.2l1.06-0.29
						c4.76,17.4,20.5,29.75,38.71,30.66v-22.13l4.34-0.03l0.27,22.16c18.49-0.9,34.24-13.35,38.72-30.91l4.2,1.07
						c-2.46,9.61-8.23,18.31-16.27,24.5c-7.78,5.99-17.05,9.32-26.92,9.69V132.01z"/>
				</g>
				<g>
					<path class="st4" d="M573.73,97.46l-4.18-1.15c5.44-19.7,23.97-33.45,45.06-33.45v4.34C595.46,67.19,578.65,79.63,573.73,97.46
						z"/>
				</g>
				<g>
					<circle class="st4" cx="614.75" cy="64.85" r="8.04"/>
					<path class="st4" d="M614.75,75.06c-5.63,0-10.21-4.58-10.21-10.21s4.58-10.21,10.21-10.21s10.21,4.58,10.21,10.21
						S620.38,75.06,614.75,75.06z M614.75,58.98c-3.24,0-5.87,2.63-5.87,5.87c0,3.24,2.63,5.87,5.87,5.87s5.87-2.63,5.87-5.87
						C620.63,61.61,617.99,58.98,614.75,58.98z"/>
				</g>
				<g>
					<path class="st4" d="M622.43,94.34c18.93-3.64,33.27-20.22,33.27-40.06h4.34c0,22.24-16.27,40.78-37.6,44.47"/>
				</g>
				<g>
					<path class="st4" d="M614.61,107.29c-5.63,0-10.21-4.58-10.21-10.21s4.58-10.21,10.21-10.21c5.63,0,10.21,4.58,10.21,10.21
						S620.24,107.29,614.61,107.29z M614.61,91.21c-3.24,0-5.87,2.63-5.87,5.87s2.63,5.87,5.87,5.87c3.24,0,5.87-2.63,5.87-5.87
						S617.85,91.21,614.61,91.21z"/>
				</g>
			</g>
			<g>
				<g>
					<path class="st4" d="M574.25-33.48h-4.34v53.59c0,22.58-18.37,40.95-40.95,40.95s-40.95-18.37-40.95-40.95v-53.59h-4.34v53.59
						c0,24.97,20.31,45.28,45.28,45.28c24.97,0,45.28-20.31,45.28-45.28V-33.48z"/>
				</g>
				<g>
					<path class="st4" d="M487.94-33.69l-4.18,1.15c5.44,19.7,23.97,33.45,45.06,33.45v-4.34C509.67-3.42,492.86-15.86,487.94-33.69
						z"/>
				</g>
				<g>
					<circle class="st4" cx="528.96" cy="-1.08" r="8.04"/>
					<path class="st4" d="M539.17-1.08c0,5.63-4.58,10.21-10.21,10.21s-10.21-4.58-10.21-10.21s4.58-10.21,10.21-10.21
						S539.17-6.71,539.17-1.08z M534.84-1.08c0-3.24-2.63-5.87-5.87-5.87s-5.87,2.63-5.87,5.87c0,3.24,2.63,5.87,5.87,5.87
						S534.84,2.16,534.84-1.08z"/>
				</g>
				<g>
					<path class="st4" d="M536.64-30.57c18.93,3.64,33.27,20.22,33.27,40.06h4.34c0-22.24-16.27-40.78-37.6-44.47"/>
				</g>
			</g>
			<g>
				<g>
					<path class="st4" d="M444.51,1.6h-4.01l0-0.04c-20.3-0.79-37.92-14.49-43.22-33.87l-0.08-0.28v-0.57h3.2l1.06-0.29
						c4.76,17.4,20.5,29.75,38.71,30.66v-22.13l4.34-0.03l0.27,22.16c18.49-0.9,34.24-13.35,38.72-30.91l4.2,1.07
						c-2.46,9.61-8.23,18.31-16.27,24.5c-7.78,5.99-17.05,9.32-26.92,9.69V1.6z"/>
				</g>
			</g>
			<g>
				<g>
					<path class="st4" d="M310.2-33.37h4.34v53.59c0,22.58,18.37,40.95,40.95,40.95c22.58,0,40.95-18.37,40.95-40.95v-53.59h4.34
						v53.59c0,24.97-20.31,45.28-45.28,45.28c-24.97,0-45.28-20.31-45.28-45.28V-33.37z"/>
				</g>
				<g>
					<path class="st4" d="M396.5-33.58l4.18,1.15c-5.44,19.7-23.97,33.45-45.06,33.45v-4.34C374.77-3.31,391.58-15.75,396.5-33.58z"
						/>
				</g>
				<g>
					<circle class="st4" cx="355.48" cy="-0.97" r="8.04"/>
					<path class="st4" d="M355.48-11.18c5.63,0,10.21,4.58,10.21,10.21s-4.58,10.21-10.21,10.21c-5.63,0-10.21-4.58-10.21-10.21
						S349.85-11.18,355.48-11.18z M355.48,4.9c3.24,0,5.87-2.63,5.87-5.87c0-3.24-2.63-5.87-5.87-5.87c-3.24,0-5.87,2.63-5.87,5.87
						C349.61,2.27,352.24,4.9,355.48,4.9z"/>
				</g>
				<g>
					<path class="st4" d="M347.8-30.46c-18.93,3.64-33.27,20.22-33.27,40.06h-4.34c0-22.24,16.27-40.78,37.61-44.47"/>
				</g>
			</g>
			<g>
				<g>
					<path class="st4" d="M396.73,96.21h4.34V42.62c0-22.58,18.37-40.95,40.95-40.95c22.58,0,40.95,18.37,40.95,40.95v53.59h4.34
						V42.62c0-24.97-20.31-45.28-45.28-45.28c-24.97,0-45.28,20.31-45.28,45.28V96.21z"/>
				</g>
				<g>
					<path class="st4" d="M439.91,130.97h4.01l0-0.04c20.3-0.79,37.92-14.49,43.22-33.87l0.08-0.28v-0.57h-3.2l-1.06-0.29
						c-4.76,17.4-20.5,29.75-38.71,30.66v-22.13l-4.34-0.03l-0.27,22.16c-18.49-0.9-34.24-13.35-38.72-30.91l-4.2,1.07
						c2.46,9.61,8.23,18.31,16.27,24.5c7.78,5.99,17.05,9.32,26.92,9.69V130.97z"/>
				</g>
				<g>
					<path class="st4" d="M483.04,96.42l4.18-1.15c-5.44-19.7-23.97-33.45-45.06-33.45v4.34C461.3,66.15,478.11,78.6,483.04,96.42z"
						/>
				</g>
				<g>
					<circle class="st4" cx="442.01" cy="63.82" r="8.04"/>
					<path class="st4" d="M431.8,63.82c0-5.63,4.58-10.21,10.21-10.21c5.63,0,10.21,4.58,10.21,10.21s-4.58,10.21-10.21,10.21
						C436.38,74.03,431.8,69.45,431.8,63.82z M436.14,63.82c0,3.24,2.63,5.87,5.87,5.87c3.24,0,5.87-2.63,5.87-5.87
						c0-3.24-2.63-5.87-5.87-5.87C438.77,57.94,436.14,60.58,436.14,63.82z"/>
				</g>
				<g>
					<path class="st4" d="M434.33,93.3c-18.93-3.64-33.27-20.22-33.27-40.06h-4.34c0,22.24,16.27,40.78,37.61,44.47"/>
				</g>
				<g>
					<path class="st4" d="M431.94,96.05c0-5.63,4.58-10.21,10.21-10.21c5.63,0,10.21,4.58,10.21,10.21s-4.58,10.21-10.21,10.21
						C436.52,106.26,431.94,101.68,431.94,96.05z M436.28,96.05c0,3.24,2.63,5.87,5.87,5.87c3.24,0,5.87-2.63,5.87-5.87
						s-2.63-5.87-5.87-5.87C438.92,90.17,436.28,92.81,436.28,96.05z"/>
				</g>
			</g>
			<g>
				<g>
					<path class="st4" d="M483.27,95.5h4.34v53.59c0,22.58,18.37,40.95,40.95,40.95c22.58,0,40.95-18.37,40.95-40.95V95.5h4.34
						v53.59c0,24.97-20.31,45.28-45.28,45.28c-24.97,0-45.28-20.31-45.28-45.28V95.5z"/>
				</g>
				<g>
					<path class="st4" d="M526.46,60.74h4.01l0,0.04c20.3,0.79,37.92,14.49,43.22,33.87l0.08,0.28v0.57h-3.2l-1.06,0.29
						c-4.76-17.4-20.5-29.75-38.71-30.66v22.13l-4.34,0.03l-0.27-22.16c-18.49,0.9-34.24,13.35-38.72,30.91l-4.2-1.07
						c2.46-9.61,8.23-18.31,16.27-24.5c7.78-5.99,17.05-9.32,26.92-9.69V60.74z"/>
				</g>
				<g>
					<path class="st4" d="M569.58,95.29l4.18,1.15c-5.44,19.7-23.97,33.45-45.06,33.45v-4.34
						C547.85,125.56,564.66,113.11,569.58,95.29z"/>
				</g>
				<g>
					<path class="st4" d="M520.88,98.41c-18.93,3.64-33.27,20.22-33.27,40.06h-4.34c0-22.24,16.27-40.78,37.61-44.47"/>
				</g>
				<g>
					<path class="st4" d="M528.7,85.46c5.63,0,10.21,4.58,10.21,10.21s-4.58,10.21-10.21,10.21c-5.63,0-10.21-4.58-10.21-10.21
						S523.07,85.46,528.7,85.46z M528.7,101.54c3.24,0,5.87-2.63,5.87-5.87s-2.63-5.87-5.87-5.87c-3.24,0-5.87,2.63-5.87,5.87
						S525.46,101.54,528.7,101.54z"/>
				</g>
			</g>
			<g>
				<g>
					<path class="st4" d="M310.34,95.44h4.34v53.59c0,22.58,18.37,40.95,40.95,40.95c22.58,0,40.95-18.37,40.95-40.95V95.44h4.34
						v53.59c0,24.97-20.31,45.28-45.28,45.28c-24.97,0-45.28-20.31-45.28-45.28V95.44z"/>
				</g>
				<g>
					<path class="st4" d="M353.53,60.68h4.01l0,0.04c20.3,0.79,37.92,14.49,43.22,33.87l0.08,0.28v0.57h-3.2l-1.06,0.29
						c-4.76-17.4-20.5-29.75-38.71-30.66V87.2l-4.34,0.03l-0.27-22.16c-18.49,0.9-34.24,13.35-38.72,30.91l-4.2-1.07
						c2.46-9.61,8.23-18.31,16.27-24.5c7.78-5.99,17.05-9.32,26.92-9.69V60.68z"/>
				</g>
				<g>
					<path class="st4" d="M396.65,95.22l4.18,1.15c-5.44,19.7-23.97,33.45-45.06,33.45v-4.34
						C374.92,125.5,391.73,113.05,396.65,95.22z"/>
				</g>
				<g>
					<path class="st4" d="M347.95,98.35c-18.93,3.64-33.27,20.22-33.27,40.06h-4.34c0-22.24,16.27-40.78,37.61-44.47"/>
				</g>
				<g>
					<path class="st4" d="M355.77,85.39c5.63,0,10.21,4.58,10.21,10.21c0,5.63-4.58,10.21-10.21,10.21
						c-5.63,0-10.21-4.58-10.21-10.21C345.56,89.97,350.14,85.39,355.77,85.39z M355.77,101.48c3.24,0,5.87-2.63,5.87-5.87
						c0-3.24-2.63-5.87-5.87-5.87c-3.24,0-5.87,2.63-5.87,5.87C349.9,98.84,352.53,101.48,355.77,101.48z"/>
				</g>
			</g>
			<g>
				<g>
					<path class="st4" d="M267.53,2.91h4.01l0-0.04c20.3-0.79,37.92-14.49,43.22-33.87l0.08-0.28v-0.57h-3.2l-1.06-0.29
						c-4.76,17.4-20.5,29.75-38.71,30.66v-22.13l-4.34-0.03l-0.27,22.16c-18.49-0.9-34.24-13.35-38.72-30.91l-4.2,1.07
						c2.46,9.61,8.23,18.31,16.27,24.5c7.78,5.99,17.05,9.32,26.92,9.69V2.91z"/>
				</g>
			</g>
			<g>
				<g>
					<path class="st4" d="M315.32,97.52h-4.34V43.93c0-22.58-18.37-40.95-40.95-40.95s-40.95,18.37-40.95,40.95v53.59h-4.34V43.93
						c0-24.97,20.31-45.28,45.28-45.28c24.97,0,45.28,20.31,45.28,45.28V97.52z"/>
				</g>
				<g>
					<path class="st4" d="M272.13,132.28h-4.01l0-0.04c-20.3-0.79-37.92-14.49-43.22-33.87l-0.08-0.28v-0.57h3.2l1.06-0.29
						c4.76,17.4,20.5,29.75,38.71,30.66v-22.13l4.34-0.03l0.27,22.16c18.49-0.9,34.24-13.35,38.72-30.91l4.2,1.07
						c-2.46,9.61-8.23,18.31-16.27,24.5c-7.78,5.99-17.05,9.32-26.92,9.69V132.28z"/>
				</g>
				<g>
					<path class="st4" d="M229.01,97.73l-4.18-1.15c5.44-19.7,23.97-33.45,45.06-33.45v4.34C250.74,67.46,233.93,79.91,229.01,97.73
						z"/>
				</g>
				<g>
					<circle class="st4" cx="270.03" cy="65.12" r="8.04"/>
					<path class="st4" d="M270.03,75.33c-5.63,0-10.21-4.58-10.21-10.21c0-5.63,4.58-10.21,10.21-10.21
						c5.63,0,10.21,4.58,10.21,10.21C280.24,70.75,275.66,75.33,270.03,75.33z M270.03,59.25c-3.24,0-5.87,2.63-5.87,5.87
						c0,3.24,2.63,5.87,5.87,5.87s5.87-2.63,5.87-5.87C275.91,61.88,273.27,59.25,270.03,59.25z"/>
				</g>
				<g>
					<path class="st4" d="M277.71,94.61c18.93-3.64,33.27-20.22,33.27-40.06h4.34c0,22.24-16.27,40.78-37.61,44.47"/>
				</g>
				<g>
					<path class="st4" d="M269.89,107.56c-5.63,0-10.21-4.58-10.21-10.21s4.58-10.21,10.21-10.21c5.63,0,10.21,4.58,10.21,10.21
						S275.52,107.56,269.89,107.56z M269.89,91.48c-3.24,0-5.87,2.63-5.87,5.87s2.63,5.87,5.87,5.87c3.24,0,5.87-2.63,5.87-5.87
						S273.13,91.48,269.89,91.48z"/>
				</g>
			</g>
			<g>
				<g>
					<path class="st4" d="M229.14-34.67h-4.34v53.59c0,22.58-18.37,40.95-40.95,40.95s-40.95-18.37-40.95-40.95v-53.59h-4.34v53.59
						c0,24.97,20.31,45.28,45.28,45.28c24.97,0,45.28-20.31,45.28-45.28V-34.67z"/>
				</g>
				<g>
					<circle class="st4" cx="183.85" cy="-2.27" r="8.04"/>
					<path class="st4" d="M194.06-2.27c0,5.63-4.58,10.21-10.21,10.21s-10.21-4.58-10.21-10.21s4.58-10.21,10.21-10.21
						S194.06-7.9,194.06-2.27z M189.73-2.27c0-3.24-2.63-5.87-5.87-5.87c-3.24,0-5.87,2.63-5.87,5.87c0,3.24,2.63,5.87,5.87,5.87
						C187.09,3.6,189.73,0.97,189.73-2.27z"/>
				</g>
				<g>
					<path class="st4" d="M191.53-31.76c18.93,3.64,33.27,20.22,33.27,40.06h4.34c0-22.24-16.27-40.78-37.6-44.47"/>
				</g>
			</g>
			<g>
				<g>
					<path class="st4" d="M99.4,0.41h-4.01l0-0.04C75.08-0.41,57.47-14.12,52.17-33.5l-0.08-0.28v-0.57h3.2l1.06-0.29
						c4.76,17.4,20.5,29.75,38.71,30.66v-22.13l4.34-0.03l0.27,22.16c18.49-0.9,34.24-13.35,38.72-30.91l4.2,1.07
						c-2.46,9.61-8.23,18.31-16.27,24.5C118.54-3.33,109.27,0,99.4,0.38V0.41z"/>
				</g>
			</g>
			<g>
				<g>
					<path class="st4" d="M-34.91-34.55h4.34v53.59c0,22.58,18.37,40.95,40.95,40.95s40.95-18.37,40.95-40.95v-53.59h4.34v53.59
						c0,24.97-20.31,45.28-45.28,45.28c-24.97,0-45.28-20.31-45.28-45.28V-34.55z"/>
				</g>
				<g>
					<circle class="st4" cx="10.37" cy="-2.16" r="8.04"/>
					<path class="st4" d="M10.37-12.37c5.63,0,10.21,4.58,10.21,10.21S16,8.05,10.37,8.05S0.16,3.47,0.16-2.16
						S4.74-12.37,10.37-12.37z M10.37,3.71c3.24,0,5.87-2.63,5.87-5.87c0-3.24-2.63-5.87-5.87-5.87S4.5-5.4,4.5-2.16
						C4.5,1.08,7.13,3.71,10.37,3.71z"/>
				</g>
				<g>
					<path class="st4" d="M2.69-31.64c-18.93,3.64-33.27,20.22-33.27,40.06h-4.34c0-22.24,16.27-40.78,37.61-44.47"/>
				</g>
			</g>
			<g>
				<g>
					<path class="st4" d="M51.62,95.02h4.34V41.43c0-22.58,18.37-40.95,40.95-40.95s40.95,18.37,40.95,40.95v53.59h4.34V41.43
						c0-24.97-20.31-45.28-45.28-45.28c-24.97,0-45.28,20.31-45.28,45.28V95.02z"/>
				</g>
				<g>
					<path class="st4" d="M94.8,129.78h4.01l0-0.04c20.3-0.79,37.92-14.49,43.22-33.87l0.08-0.28v-0.57h-3.2l-1.06-0.29
						c-4.76,17.4-20.5,29.75-38.71,30.66v-22.13l-4.34-0.03l-0.27,22.16c-18.49-0.9-34.24-13.35-38.72-30.91l-4.2,1.07
						c2.46,9.61,8.23,18.31,16.27,24.5c7.78,5.99,17.05,9.32,26.92,9.69V129.78z"/>
				</g>
				<g>
					<path class="st4" d="M137.93,95.24l4.18-1.15c-5.44-19.7-23.97-33.45-45.06-33.45v4.34C116.19,64.96,133,77.41,137.93,95.24z"
						/>
				</g>
				<g>
					<circle class="st4" cx="96.9" cy="62.63" r="8.04"/>
					<path class="st4" d="M86.69,62.63c0-5.63,4.58-10.21,10.21-10.21s10.21,4.58,10.21,10.21s-4.58,10.21-10.21,10.21
						S86.69,68.26,86.69,62.63z M91.03,62.63c0,3.24,2.63,5.87,5.87,5.87s5.87-2.63,5.87-5.87c0-3.24-2.63-5.87-5.87-5.87
						S91.03,59.39,91.03,62.63z"/>
				</g>
				<g>
					<path class="st4" d="M89.22,92.11C70.29,88.48,55.95,71.9,55.95,52.05h-4.34c0,22.24,16.27,40.78,37.61,44.47"/>
				</g>
				<g>
					<path class="st4" d="M86.83,94.86c0-5.63,4.58-10.21,10.21-10.21c5.63,0,10.21,4.58,10.21,10.21c0,5.63-4.58,10.21-10.21,10.21
						C91.41,105.07,86.83,100.49,86.83,94.86z M91.17,94.86c0,3.24,2.63,5.87,5.87,5.87c3.24,0,5.87-2.63,5.87-5.87
						c0-3.24-2.63-5.87-5.87-5.87C93.81,88.98,91.17,91.62,91.17,94.86z"/>
				</g>
			</g>
			<g>
				<g>
					<path class="st4" d="M138.16,94.31h4.34v53.59c0,22.58,18.37,40.95,40.95,40.95s40.95-18.37,40.95-40.95V94.31h4.34v53.59
						c0,24.97-20.31,45.28-45.28,45.28c-24.97,0-45.28-20.31-45.28-45.28V94.31z"/>
				</g>
				<g>
					<path class="st4" d="M181.35,59.55h4.01l0,0.04c20.3,0.79,37.92,14.49,43.22,33.87l0.08,0.28v0.57h-3.2l-1.06,0.29
						c-4.76-17.4-20.5-29.75-38.71-30.66v22.13l-4.34,0.03l-0.27-22.16c-18.49,0.9-34.24,13.35-38.72,30.91l-4.2-1.07
						c2.46-9.61,8.23-18.31,16.27-24.5c7.78-5.99,17.05-9.32,26.92-9.69V59.55z"/>
				</g>
				<g>
					<path class="st4" d="M224.47,94.1l4.18,1.15c-5.44,19.7-23.97,33.45-45.06,33.45v-4.34
						C202.74,124.37,219.55,111.92,224.47,94.1z"/>
				</g>
				<g>
					<path class="st4" d="M175.77,97.22c-18.93,3.64-33.27,20.22-33.27,40.06h-4.34c0-22.24,16.27-40.78,37.61-44.47"/>
				</g>
				<g>
					<path class="st4" d="M183.59,84.27c5.63,0,10.21,4.58,10.21,10.21s-4.58,10.21-10.21,10.21c-5.63,0-10.21-4.58-10.21-10.21
						S177.96,84.27,183.59,84.27z M183.59,100.35c3.24,0,5.87-2.63,5.87-5.87s-2.63-5.87-5.87-5.87c-3.24,0-5.87,2.63-5.87,5.87
						S180.35,100.35,183.59,100.35z"/>
				</g>
			</g>
			<g>
				<g>
					<path class="st4" d="M-34.77,94.25h4.34v53.59c0,22.58,18.37,40.95,40.95,40.95s40.95-18.37,40.95-40.95V94.25h4.34v53.59
						c0,24.97-20.31,45.28-45.28,45.28c-24.97,0-45.28-20.31-45.28-45.28V94.25z"/>
				</g>
				<g>
					<path class="st4" d="M8.42,59.49h4.01l0,0.04c20.3,0.79,37.92,14.49,43.22,33.87l0.08,0.28v0.57h-3.2l-1.06,0.29
						c-4.76-17.4-20.5-29.75-38.71-30.66v22.13l-4.34,0.03L8.15,63.87c-18.49,0.9-34.24,13.35-38.72,30.91l-4.2-1.07
						c2.46-9.61,8.23-18.31,16.27-24.5c7.78-5.99,17.05-9.32,26.92-9.69V59.49z"/>
				</g>
				<g>
					<path class="st4" d="M51.54,94.04l4.18,1.15c-5.44,19.7-23.97,33.45-45.06,33.45v-4.34C29.81,124.31,46.62,111.86,51.54,94.04z
						"/>
				</g>
				<g>
					<path class="st4" d="M2.84,97.16c-18.93,3.64-33.27,20.22-33.27,40.06h-4.34c0-22.24,16.27-40.78,37.61-44.47"/>
				</g>
				<g>
					<path class="st4" d="M10.66,84.2c5.63,0,10.21,4.58,10.21,10.21s-4.58,10.21-10.21,10.21c-5.63,0-10.21-4.58-10.21-10.21
						S5.03,84.2,10.66,84.2z M10.66,100.29c3.24,0,5.87-2.63,5.87-5.87s-2.63-5.87-5.87-5.87c-3.24,0-5.87,2.63-5.87,5.87
						S7.42,100.29,10.66,100.29z"/>
				</g>
			</g>
		</g>
	</g>
</g>
</svg>
