<?xml version="1.0" encoding="utf-8"?>
<!-- Generator: Adobe Illustrator 26.0.0, SVG Export Plug-In . SVG Version: 6.00 Build 0)  -->
<svg version="1.1" id="Layer_1" xmlns="http://www.w3.org/2000/svg" xmlns:xlink="http://www.w3.org/1999/xlink" x="0px" y="0px"
	 viewBox="0 0 64.31 94.89" style="enable-background:new 0 0 64.31 94.89;" xml:space="preserve">
<style type="text/css">
	.st0{fill:#EB3B5A;}
	.st1{fill:#1A0B3A;}
	.st2{fill:#FFFFFF;}
</style>
<path class="st0" d="M1.59,70.21l0,0.2C5.2,83.62,17.5,93.35,32.1,93.35V76.06l0.21,17.29c14.74,0,27.11-9.85,30.51-23.14l-0.05,0
	l0-38.05c0-16.91-13.71-30.62-30.62-30.62S1.54,15.25,1.54,32.15l0,38.05"/>
<g>
	<path class="st0" d="M32.05,47.32c-14.62,0-26.92,9.6-30.51,22.63"/>
	<path class="st1" d="M3.02,70.36l-2.97-0.82c3.86-13.99,17.02-23.76,32-23.76v3.08C18.46,48.86,6.52,57.7,3.02,70.36z"/>
</g>
<g>
	<circle class="st1" cx="32.15" cy="47.2" r="5.71"/>
	<path class="st1" d="M32.15,54.45c-4,0-7.25-3.25-7.25-7.25s3.25-7.25,7.25-7.25s7.25,3.25,7.25,7.25S36.15,54.45,32.15,54.45z
		 M32.15,43.03c-2.3,0-4.17,1.87-4.17,4.17c0,2.3,1.87,4.17,4.17,4.17c2.3,0,4.17-1.87,4.17-4.17
		C36.33,44.9,34.45,43.03,32.15,43.03z"/>
</g>
<g>
	<path class="st1" d="M32.05,71.75v-3.08c16.09,0,29.18-13,29.18-28.97h3.08C64.31,57.37,49.84,71.75,32.05,71.75z"/>
</g>
<g>
	<circle class="st2" cx="32.05" cy="70.09" r="5.71"/>
	<path class="st1" d="M32.05,77.34c-4,0-7.25-3.25-7.25-7.25c0-4,3.25-7.25,7.25-7.25c4,0,7.25,3.25,7.25,7.25
		C39.3,74.09,36.05,77.34,32.05,77.34z M32.05,65.92c-2.3,0-4.17,1.87-4.17,4.17c0,2.3,1.87,4.17,4.17,4.17
		c2.3,0,4.17-1.87,4.17-4.17C36.22,67.79,34.35,65.92,32.05,65.92z"/>
</g>
<g>
	<path class="st1" d="M64.31,70.21h-3.08V32.15c0-16.03-13.04-29.08-29.08-29.08S3.08,16.12,3.08,32.15v38.05H0V32.15
		C0,14.42,14.42,0,32.15,0c17.73,0,32.15,14.42,32.15,32.15V70.21z"/>
</g>
<g>
	<path class="st1" d="M32.13,94.89h-1.39l0-0.03C16.33,94.31,3.82,84.57,0.05,70.81L0,70.61v-0.41h2.27L3.02,70
		C6.4,82.35,17.58,91.12,30.51,91.77V76.06l1.62-0.01"/>
	<path class="st1" d="M32.14,94.89h1.39l0-0.03c14.42-0.56,26.92-10.29,30.69-24.05l0.05-0.2v-0.41H62L61.24,70
		c-3.38,12.35-14.55,21.12-27.49,21.77V76.06l-1.62-0.01"/>
</g>
</svg>
